<?xml version="1.0" standalone="no"?>
<!DOCTYPE svg PUBLIC "-//W3C//DTD SVG 1.1//EN" "http://www.w3.org/Graphics/SVG/1.1/DTD/svg11.dtd" >
<svg>
<metadata>
Created by FontForge 20090914 at Fri Feb 24 15:47:55 2012
 By root
Merriweather is a medium contrast semi condesed typeface designed to be readable at very small sizes. Merriweather is traditional in feeling despite a the modern shapes it has adopted for screens. 
</metadata>
<defs>
<font id="Merriweather-Heavy" horiz-adv-x="0" >
  <font-face 
    font-family="Merriweather"
    font-weight="900"
    font-stretch="normal"
    units-per-em="2048"
    panose-1="2 6 5 3 5 4 6 3 7 4"
    ascent="1638"
    descent="-410"
    x-height="1119"
    cap-height="1553"
    bbox="-219.134 -640 2880 1920"
    underline-thickness="234"
    underline-position="-76"
    stemh="164"
    stemv="69"
    unicode-range="U+0001-U+FB04"
  />
<missing-glyph horiz-adv-x="1770" 
d="M177 -2v1418h1416v-1418h-1416zM356 396l212 -225l309 362l350 -359l191 191l-365 346l370 353l-202 200l-337 -375l-348 365l-194 -199l362 -347z" />
    <glyph glyph-name=".notdef" horiz-adv-x="1770" 
d="M177 -2v1418h1416v-1418h-1416zM356 396l212 -225l309 362l350 -359l191 191l-365 346l370 353l-202 200l-337 -375l-348 365l-194 -199l362 -347z" />
    <glyph glyph-name=".null" unicode="&#xe000;" 
 />
    <glyph glyph-name="CR" unicode="&#xe001;" 
 />
    <glyph glyph-name="space" unicode=" " horiz-adv-x="560" 
 />
    <glyph glyph-name="numbersign" unicode="#" horiz-adv-x="1489" 
d="M300 0l30 345h-217v219h236l25 265h-235v216h249l38 310h246l-27 -310h243l28 310h261l-26 -310h225v-216h-249l-24 -265h235c0 -73 1 -146 1 -219h-256l-31 -345h-255l27 345h-234l-34 -345h-256zM609 564h234l23 265h-233z" />
    <glyph glyph-name="ampersand" unicode="&#x26;" horiz-adv-x="1592" 
d="M82 386c0 208 157 302 338 375c-90 118 -182 241 -178 394c7 268 256 397 475 397c252 0 451 -133 451 -340c0 -181 -141 -351 -356 -447c95 -124 245 -295 332 -386l11 -13c8 47 7 96 7 141c0 127 -23 202 -38 231h313c12 -7 38 -45 38 -176c0 -115 -50 -249 -139 -348
c66 -41 128 -61 184 -61v-140c-49 -26 -134 -35 -220 -29c-70 6 -135 16 -219 58c-88 -43 -195 -70 -345 -70c-425 0 -654 150 -654 414zM720 889c116 77 139 187 139 340c0 86 -39 186 -148 186c-60 0 -131 -32 -149 -151c-26 -168 93 -299 158 -375zM427 438
c0 -235 167 -303 332 -303c64 0 119 3 166 12c-122 110 -283 309 -398 467c-53 -43 -100 -107 -100 -176z" />
    <glyph glyph-name="quotesingle" unicode="'" horiz-adv-x="713" 
d="M259 956l-85 826h365l-85 -826h-195z" />
    <glyph glyph-name="parenleft" unicode="(" horiz-adv-x="1011" 
d="M160 712c0 660 435 1010 534 1061l143 -112c-82 -56 -325 -282 -343 -893c-17 -579 268 -933 372 -1005l-151 -115c-99 55 -555 308 -555 1064z" />
    <glyph glyph-name="parenright" unicode=")" horiz-adv-x="1011" 
d="M174 -250c82 56 325 282 343 893c17 579 -268 933 -372 1005l151 115c99 -55 555 -308 555 -1064c0 -660 -435 -1010 -534 -1061z" />
    <glyph glyph-name="asterisk" unicode="*" horiz-adv-x="1240" 
d="M472 755l21 313l60 125l-90 -112l-239 -200l-151 203l310 168l128 22l-125 16l-316 144l150 226l243 -200l90 -103l-60 133l-21 309l278 -1l-21 -308l-71 -133l95 116l243 184l174 -225l-343 -140l-128 -18l129 -24l337 -168l-174 -198l-238 197l-92 112l60 -125l29 -313
h-278z" />
    <glyph glyph-name="plus" unicode="+" horiz-adv-x="1320" 
d="M529 342v192l10 188l-155 -10h-211v256h211l155 -10l-10 188v212h262v-212l-10 -188l155 10h211v-256h-211l-155 10l10 -188v-192h-262z" />
    <glyph glyph-name="comma" unicode="," horiz-adv-x="797" 
d="M181 -15v81l204 258c186 -67 265 -244 262 -402c-6 -292 -213 -458 -390 -518l-77 69v55c70 31 172 111 172 269c0 92 -79 180 -171 188z" />
    <glyph glyph-name="hyphen" unicode="-" horiz-adv-x="1320" 
d="M183 722v236h954v-236h-954z" />
    <glyph glyph-name="period" unicode="." horiz-adv-x="803" 
d="M179 157c0 129 129 227 238 227c141 0 207 -87 207 -194c0 -136 -124 -219 -242 -219c-101 0 -203 67 -203 186z" />
    <glyph glyph-name="slash" unicode="/" horiz-adv-x="827" 
d="M30 -363l514 1962h253l-515 -1962h-252z" />
    <glyph glyph-name="zero" unicode="0" horiz-adv-x="1404" 
d="M104 632c7 388 312 617 617 620c413 4 582 -277 579 -629c-4 -385 -287 -646 -605 -647c-406 -1 -595 314 -591 656zM716 128c155 -5 195 154 195 483c0 293 -85 485 -227 489c-155 4 -192 -167 -192 -449c0 -236 82 -518 224 -523z" />
    <glyph glyph-name="one" unicode="1" horiz-adv-x="995" 
d="M113 0v146l261 41v725l-277 -32l-36 162c129 35 465 187 515 226l144 -19l-5 -1063l237 -40v-146h-839z" />
    <glyph glyph-name="two" unicode="2" horiz-adv-x="1262" 
d="M139 0l-50 130c308 184 636 476 636 699c0 105 -67 220 -214 220c-162 0 -269 -83 -346 -144l-86 129c47 70 253 229 543 229c299 0 471 -171 471 -353c0 -276 -214 -442 -650 -730l526 71l92 118l145 -44l-69 -325h-998z" />
    <glyph glyph-name="three" unicode="3" horiz-adv-x="1115" 
d="M113 -134c310 -76 580 66 580 324c0 74 -10 245 -243 273l-215 -45v184c109 10 369 94 369 313c0 112 -92 156 -166 156c-161 0 -246 -62 -308 -101l-86 127c37 39 210 172 477 172c199 0 416 -91 416 -337c0 -154 -152 -321 -307 -369c234 -2 407 -147 407 -363
c0 -315 -360 -617 -923 -511c0 62 -1 115 -1 177z" />
    <glyph glyph-name="four" unicode="4" horiz-adv-x="1308" 
d="M124 0l-49 130c182 299 475 789 633 1144h99l230 -154l-611 -870l-71 -86l447 47l16 378l276 33v-381l180 19v-260h-180v-376h-315l15 376h-670z" />
    <glyph glyph-name="five" unicode="5" horiz-adv-x="1139" 
d="M108 -182c293 -24 581 86 581 409c0 190 -100 351 -429 274l-131 40l62 696h666l28 37h129l-84 -301h-509l-64 -300c456 134 695 -141 695 -405c0 -414 -427 -619 -821 -619c-34 0 -87 3 -123 14v155z" />
    <glyph glyph-name="six" unicode="6" horiz-adv-x="1348" 
d="M114 550c0 543 485 925 915 1001l78 -148c-296 -76 -644 -394 -644 -781c0 -181 10 -500 235 -500c91 0 214 75 214 352c0 125 -80 281 -221 281c-50 0 -92 -10 -126 -28l-47 95c33 54 147 146 318 146c271 0 412 -190 412 -437c0 -315 -221 -555 -586 -555
c-342 0 -548 263 -548 574z" />
    <glyph glyph-name="seven" unicode="7" horiz-adv-x="1232" 
d="M263 -215c214 391 419 810 636 1300l-496 -26l-75 -230l-210 4l37 420h964l58 -63l-571 -1526z" />
    <glyph glyph-name="eight" unicode="8" horiz-adv-x="1297" 
d="M99 373c0 145 99 332 328 409c-141 103 -259 223 -259 392c0 266 252 393 492 393c250 0 477 -114 477 -364c0 -140 -139 -306 -264 -357c173 -118 336 -250 336 -430c0 -314 -281 -440 -543 -440c-282 0 -567 106 -567 397zM743 932c77 56 113 144 112 250
c-1 146 -100 243 -212 243c-78 0 -181 -53 -181 -172c0 -121 129 -219 281 -321zM409 456c0 -198 123 -334 273 -334c95 0 204 52 204 218c0 141 -163 243 -333 355c-79 -62 -144 -139 -144 -239z" />
    <glyph glyph-name="nine" unicode="9" horiz-adv-x="1331" 
d="M281 -261c296 76 594 482 594 869c0 181 -10 500 -235 500c-91 0 -214 -75 -214 -352c0 -125 80 -281 221 -281c50 0 92 10 126 28l47 -95c-35 -62 -126 -146 -318 -146c-271 0 -412 190 -412 437c0 315 221 555 586 555c342 0 548 -263 548 -574
c0 -543 -435 -1013 -865 -1089z" />
    <glyph glyph-name="colon" unicode=":" horiz-adv-x="803" 
d="M382 702c-101 0 -203 67 -203 186c0 129 129 227 238 227c141 0 207 -87 207 -194c0 -136 -124 -219 -242 -219zM179 150c0 129 129 227 238 227c141 0 207 -87 207 -194c0 -136 -124 -219 -242 -219c-101 0 -203 67 -203 186z" />
    <glyph glyph-name="semicolon" unicode=";" horiz-adv-x="828" 
d="M383 702c-101 0 -203 67 -203 186c0 129 129 227 238 227c141 0 207 -87 207 -194c0 -136 -124 -219 -242 -219zM212 -15v81l204 258c186 -67 265 -244 262 -402c-6 -292 -213 -458 -390 -518l-77 69v55c70 31 172 111 172 269c0 92 -79 180 -171 188z" />
    <glyph glyph-name="less" unicode="&#x3c;" horiz-adv-x="1335" 
d="M183 703v134l969 503v-293l-595 -280l595 -246v-304z" />
    <glyph glyph-name="equal" unicode="=" horiz-adv-x="1320" 
d="M183 979v231h954v-231h-954zM183 430v232h954v-232h-954z" />
    <glyph glyph-name="greater" unicode="&#x3e;" horiz-adv-x="1335" 
d="M183 200v293l595 279l-595 247v304l969 -486v-134z" />
    <glyph glyph-name="question" unicode="?" horiz-adv-x="1063" 
d="M363 543c-119 114 -167 236 -167 310c0 209 527 230 555 324c-15 310 -320 389 -440 394c-123 5 -193 -5 -228 -33l-15 272c18 28 151 55 250 51c651 -28 686 -588 600 -769c-35 -59 -310 -125 -392 -222c-46 -54 56 -277 87 -327h-250zM335 154c0 129 129 227 238 227
c141 0 207 -87 207 -194c0 -136 -124 -219 -242 -219c-101 0 -203 67 -203 186z" />
    <glyph glyph-name="at" unicode="@" horiz-adv-x="2282" 
d="M140 381c0 673 637 1081 1154 1081c644 0 862 -333 862 -644c0 -444 -301 -759 -628 -781c-150 -9 -179 85 -179 209c0 22 6 86 14 152c-78 -175 -217 -365 -387 -373c-156 -8 -339 139 -339 360c0 398 265 656 482 673c123 9 189 -14 277 -49c15 35 34 60 62 53
c84 -21 154 -50 238 -74c-24 -151 -59 -305 -76 -496c-18 -208 4 -277 17 -277c102 2 261 279 261 515c0 448 -326 573 -695 573c-330 0 -769 -316 -769 -812c0 -548 348 -706 715 -706c141 0 351 47 408 81l65 -128c-98 -70 -280 -116 -511 -116c-588 0 -971 281 -971 759z
M927 502c0 -128 27 -255 98 -255c61 0 263 304 304 576c-29 19 -127 39 -167 39c-122 0 -235 -104 -235 -360z" />
    <glyph glyph-name="A" unicode="A" horiz-adv-x="1600" 
d="M5 0v140l133 40l493 1373h333l479 -1375l152 -40v-138h-684v138l134 45l-43 152h-541l-45 -148l149 -47v-140h-560zM518 521h430l-133 458l-73 274z" />
    <glyph glyph-name="B" unicode="B" horiz-adv-x="1457" 
d="M80 0v140l155 43v1184l-151 22v164h312c-7 6 178 8 349 14c369 12 560 -138 560 -370c0 -163 -84 -311 -262 -359c197 0 368 -169 368 -374c0 -308 -188 -475 -710 -475c-121 0 -213 11 -395 11h-226zM589 882c21 -7 58 -8 130 -8c243 0 245 190 245 298
c0 129 -53 242 -267 242c-30 0 -84 -4 -106 -15zM587 164c33 -17 114 -27 205 -27c198 0 246 183 246 311c0 139 -53 276 -260 276c-60 0 -126 1 -191 -12v-548z" />
    <glyph glyph-name="C" unicode="C" horiz-adv-x="1475" 
d="M68 724c1 518 427 843 880 843c204 0 332 -45 424 -64l-20 -389h-210l-73 205c-26 39 -70 63 -216 63c-221 0 -390 -202 -390 -566c0 -345 144 -673 413 -673c167 0 223 38 241 80l82 201h174v-357c-100 -4 -217 -95 -522 -95c-512 0 -783 333 -783 752z" />
    <glyph glyph-name="D" unicode="D" horiz-adv-x="1616" 
d="M90 0v140l145 40v1188l-141 21v164h328c87 0 222 14 351 14c548 0 778 -308 778 -745c0 -524 -330 -832 -805 -832c-100 0 -241 11 -318 11c-112 0 -226 -1 -338 -1zM593 179c49 -31 131 -40 237 -30c199 18 346 257 346 599c0 439 -141 654 -427 659
c-59 1 -127 -11 -156 -29v-1199z" />
    <glyph glyph-name="E" unicode="E" horiz-adv-x="1426" 
d="M101 0v140l147 39v1188l-142 22v164h1135l31 -342h-205l-94 160l-370 21v-519l256 10l54 149h181v-488h-181l-54 159l-256 6v-549l439 28l127 198l208 -37l-54 -349h-1222z" />
    <glyph glyph-name="F" unicode="F" horiz-adv-x="1323" 
d="M85 0v140l150 33v1196l-155 20v164h1146l32 -348l-177 -2l-71 153l-420 23v-524l289 12l65 153h150v-511h-166l-45 164l-292 5v-491l321 -28v-159h-827z" />
    <glyph glyph-name="G" unicode="G" horiz-adv-x="1585" 
d="M65 748c0 516 349 819 828 819c266 0 464 -39 509 -56l-22 -341h-180l-92 179c-10 16 -93 61 -236 61c-268 0 -421 -253 -421 -582c0 -362 101 -697 393 -697c127 0 250 64 258 127v257l-211 27v166h618v-166l-94 -23v-465c-172 21 -397 -82 -635 -82
c-439 0 -715 342 -715 776z" />
    <glyph glyph-name="H" unicode="H" horiz-adv-x="1780" 
d="M65 0v140l170 42v1184l-176 23v164h707v-164l-173 -22v-485h595v488l-169 19v164h701v-164l-175 -21v-1187l185 -43v-138h-725v138l183 42v511h-595v-509l184 -42v-140h-712z" />
    <glyph glyph-name="I" unicode="I" horiz-adv-x="848" 
d="M55 0v140l188 41v1184l-188 24v164h727v-164l-178 -25v-1181l189 -43v-140h-738z" />
    <glyph glyph-name="J" unicode="J" horiz-adv-x="787" 
d="M182 -47c42 117 50 249 50 453v961l-148 22v164h652v-164l-143 -23v-832c0 -237 -19 -480 -60 -575c-104 -239 -395 -350 -575 -355l-70 101c131 51 239 120 294 248z" />
    <glyph glyph-name="K" unicode="K" horiz-adv-x="1535" 
d="M46 0v140l189 43v1181l-192 25v164h724v-164l-178 -25v-567l460 569l-159 23l-3 164h619v-164l-187 -26l-431 -474c176 -154 412 -651 527 -712l130 -37v-140h-423c-118 0 -267 562 -419 684l-114 -126v-376l201 -42v-140h-744z" />
    <glyph glyph-name="L" unicode="L" horiz-adv-x="1293" 
d="M93 0v140l142 38v1169l-137 21v185h678v-185l-182 -22v-1183l360 39l167 237l152 -56l-69 -383h-1111z" />
    <glyph glyph-name="M" unicode="M" horiz-adv-x="2060" 
d="M62 0v140l172 42l70 1161l-185 23v187h679l241 -796l33 -202l42 202l226 796h626v-187l-187 -22l104 -1163l157 -43v-138h-663v138l165 45l-56 766l-4 406l-34 -138l-355 -1235h-130l-330 990l-120 375l-4 -278l-30 -884l184 -45v-140h-601z" />
    <glyph glyph-name="N" unicode="N" horiz-adv-x="1706" 
d="M78 0v140l157 45v1161l-150 22v185h509l602 -1048l88 -236v1073l-180 28v183h544v-183l-137 -22v-1348h-392l-545 917l-109 270c0 -332 1 -670 1 -998l203 -49v-140h-591z" />
    <glyph glyph-name="O" unicode="O" horiz-adv-x="1600" 
d="M66 754c12 504 371 813 752 813c436 0 725 -330 716 -777c-11 -504 -323 -818 -737 -818c-454 0 -740 341 -731 782zM810 132c260 0 332 218 332 657c0 261 -90 613 -333 613c-265 0 -350 -229 -350 -647c0 -235 94 -623 351 -623z" />
    <glyph glyph-name="P" unicode="P" horiz-adv-x="1368" 
d="M60 0v140l175 43v1163l-172 34v173h358c100 0 201 14 343 14c322 0 601 -84 601 -454c0 -334 -262 -511 -602 -511c-78 0 -135 0 -176 2v-422l245 -42v-140h-772zM587 783c41 -9 121 -11 169 -11c140 0 259 89 259 358c0 190 -128 271 -295 274c-33 0 -114 -5 -133 -13
v-608z" />
    <glyph glyph-name="Q" unicode="Q" horiz-adv-x="1600" 
d="M66 754c12 504 371 813 752 813c436 0 725 -330 716 -777c-10 -424 -232 -713 -549 -794c75 -171 293 -123 343 -118c72 10 133 33 156 40v-220c-47 -45 -141 -89 -296 -89c-142 0 -313 65 -371 364c-7 0 -14 -1 -20 -1c-454 0 -740 341 -731 782zM810 132
c260 0 332 218 332 657c0 261 -90 613 -333 613c-265 0 -350 -229 -350 -647c0 -235 94 -623 351 -623z" />
    <glyph glyph-name="R" unicode="R" horiz-adv-x="1525" 
d="M61 0v140l174 43v1173l-155 24v173h225c189 0 353 14 455 14c342 0 604 -113 604 -406c0 -236 -107 -392 -338 -470c166 -90 266 -448 389 -514l130 -37v-140h-423c-132 0 -240 644 -412 645c-43 -1 -84 0 -121 -1v-466l191 -38v-140h-719zM589 809
c61 -10 145 -12 209 -3c92 13 223 69 223 318c0 131 -76 279 -311 279c-38 0 -97 0 -121 -12v-582z" />
    <glyph glyph-name="S" unicode="S" horiz-adv-x="1316" 
d="M137 64v405h150l93 -241c71 -94 178 -102 282 -102s237 49 237 222c0 136 -179 219 -364 319c-199 108 -405 236 -404 474c1 275 265 426 537 426c219 0 442 -46 484 -72v-331h-164l-94 210c-12 15 -108 47 -191 47c-107 0 -232 -37 -234 -164c0 -149 134 -240 292 -327
c224 -124 495 -241 494 -509c-1 -255 -223 -449 -595 -449c-186 0 -421 38 -523 92z" />
    <glyph glyph-name="T" unicode="T" horiz-adv-x="1456" 
d="M341 0v140l230 39v1206l-274 -27l-69 -215l-181 -9l24 419h1339l-2 -407l-141 -17l-77 229l-265 27v-1205l225 -40v-140h-809z" />
    <glyph glyph-name="U" unicode="U" horiz-adv-x="1611" 
d="M194 625l4 740l-158 24v164h682v-164l-169 -23v-756c0 -404 182 -460 344 -460c183 0 321 113 319 516l-3 697l-168 26v164h539v-164l-144 -26v-696c0 -547 -281 -695 -587 -695c-448 0 -661 212 -659 653z" />
    <glyph glyph-name="V" unicode="V" horiz-adv-x="1493" 
d="M633 -15l-502 1385l-118 19v164h667v-161l-163 -25l216 -754l64 -269l61 263l204 759l-154 23v163h572v-163l-121 -19l-452 -1385h-274z" />
    <glyph glyph-name="W" unicode="W" horiz-adv-x="2281" 
d="M587 -15l-448 1384l-124 19v165h625v-163l-119 -21l234 -925c11 -57 22 -112 34 -168l33 168l190 766l-40 159l-130 19v165h646v-163l-162 -23l204 -923l36 -172l42 172l223 924l-150 20v165h585v-165l-151 -19l-416 -1385h-341l-229 807l-222 -806h-320z" />
    <glyph glyph-name="X" unicode="X" horiz-adv-x="1553" 
d="M24 0v138l176 44l411 566l-426 617l-161 24v164h707v-161l-146 -23l214 -394l243 394l-136 20v164h623v-164l-192 -22l-421 -548l449 -635l165 -46v-138h-703v137l143 40l-231 399l-234 -393l188 -45v-138h-669z" />
    <glyph glyph-name="Y" unicode="Y" horiz-adv-x="1480" 
d="M349 0v140l240 45v326l-466 859l-110 19v164h630v-161l-106 -20l252 -531l29 -94l33 103l213 514l-159 25c0 55 -1 109 -1 164h563v-164l-132 -37l-390 -809v-355l269 -48v-140h-865z" />
    <glyph glyph-name="Z" unicode="Z" horiz-adv-x="1388" 
d="M93 0l-41 139l739 1072l166 182l-574 -47l-128 -245l-153 30l43 422h1150l46 -153l-727 -1070l-145 -166l557 46l199 267l149 -41l-110 -436h-1171z" />
    <glyph glyph-name="bracketleft" unicode="[" horiz-adv-x="1118" 
d="M259 111v1401c0 238 110 292 313 292c93 0 215 -41 310 -77c0 -41 -1 -83 -1 -124h-308v-1632l308 -4l4 -125c-66 -37 -220 -72 -312 -72c-205 0 -314 43 -314 341z" />
    <glyph glyph-name="backslash" unicode="\" horiz-adv-x="827" 
d="M545 -363l-515 1962h253l514 -1962h-252z" />
    <glyph glyph-name="bracketright" unicode="]" horiz-adv-x="1118" 
d="M231 -33l308 4v1632h-308c0 41 -1 83 -1 124c95 36 217 77 310 77c203 0 313 -54 313 -292v-1401c0 -298 -109 -341 -314 -341c-92 0 -246 35 -312 72z" />
    <glyph glyph-name="asciicircum" unicode="^" horiz-adv-x="1501" 
d="M183 564l402 967h341l392 -967c-106 0 -213 -1 -319 -1l-264 657l-276 -657c-92 0 -184 1 -276 1z" />
    <glyph glyph-name="underscore" unicode="_" horiz-adv-x="1421" 
d="M-20 -193h1455v-234h-1455v234z" />
    <glyph glyph-name="grave" unicode="`" horiz-adv-x="884" 
d="M715 1337c-161 -5 -381 174 -482 320l255 195l315 -426z" />
    <glyph glyph-name="a" unicode="a" horiz-adv-x="1226" 
d="M71 394c56 234 455 308 653 308c0 213 -77 258 -213 258c-173 0 -302 -65 -331 -86l-68 154c42 36 223 123 506 123c269 0 460 -85 460 -411v-604h131v-107c-68 -47 -182 -57 -259 -57c-51 0 -175 17 -180 114c-69 -65 -162 -114 -290 -114c-349 0 -461 205 -409 422z
M417 335c0 -129 75 -188 216 -168c36 5 65 20 90 39c0 114 1 229 1 343c-125 0 -307 -38 -307 -214z" />
    <glyph glyph-name="b" unicode="b" horiz-adv-x="1327" 
d="M149 56v1328l-125 57v140l422 48l57 -17v-524c65 36 154 63 263 63c247 0 488 -147 488 -546c0 -326 -248 -633 -631 -633c-211 0 -445 55 -474 84zM503 201c18 -34 61 -84 156 -84c113 0 227 89 238 450c9 285 -142 409 -268 409c-54 0 -96 -9 -126 -19v-756z" />
    <glyph glyph-name="c" unicode="c" horiz-adv-x="1134" 
d="M74 525c-2 388 274 614 621 626c137 4 309 -18 369 -52v-317h-183l-79 188c-37 22 -89 25 -132 25c-136 0 -221 -137 -229 -371c-11 -323 148 -455 326 -455c121 0 232 34 281 71l53 -125c-106 -91 -271 -143 -472 -143c-359 0 -553 234 -555 553z" />
    <glyph glyph-name="d" unicode="d" horiz-adv-x="1383" 
d="M73 541c0 357 293 610 651 610c30 0 70 0 120 -8v241l-221 57v140l510 49l65 -27v-1467h142v-107c-45 -25 -145 -57 -304 -57c-86 0 -140 25 -166 72c-53 -37 -149 -72 -321 -72c-209 0 -476 163 -476 569zM637 147c23 -9 46 -13 70 -13c60 0 107 8 137 19v827
c-48 31 -105 35 -151 35c-62 0 -246 -51 -251 -398c-6 -270 82 -426 195 -470z" />
    <glyph glyph-name="e" unicode="e" horiz-adv-x="1239" 
d="M73 531c0 342 230 620 614 620c324 0 457 -174 466 -418c3 -83 -6 -147 -14 -203h-697c18 -235 121 -357 317 -357c97 0 211 19 319 67l53 -125c-102 -85 -297 -147 -491 -143c-363 7 -567 208 -567 559zM443 691h366c8 98 25 237 -56 294c-24 17 -55 26 -98 26
c-155 0 -202 -166 -212 -320z" />
    <glyph glyph-name="f" unicode="f" horiz-adv-x="946" 
d="M72 0v136l162 30v747h-183v105l183 79v105c0 234 199 532 496 532c69 0 166 -11 215 -32v-260c-21 8 -134 55 -224 55c-88 0 -133 -13 -133 -189v-189h300v-206h-300v-748l240 -29v-136h-756z" />
    <glyph glyph-name="g" unicode="g" horiz-adv-x="1276" 
d="M238 35c-103 40 -112 109 -112 189c0 63 66 165 136 223c-122 58 -194 160 -194 306c0 281 274 394 537 398c151 2 279 -27 366 -94c26 53 86 93 223 93h88v-240h-207c12 -37 18 -78 18 -124c0 -271 -217 -399 -515 -399c-64 0 -123 5 -176 15c-10 -24 -16 -51 -16 -73
c0 -81 52 -113 143 -113h234c355 0 483 -93 483 -327c0 -229 -228 -420 -664 -420c-311 0 -513 87 -513 296c0 136 92 224 169 270zM602 547c125 0 165 116 165 227c0 151 -64 237 -183 237c-81 0 -170 -48 -170 -181c0 -153 37 -283 188 -283zM368 -138
c0 -156 118 -234 281 -234c177 0 273 33 273 182c0 84 3 190 -225 190h-177c-46 0 -86 1 -122 4c-17 -32 -30 -76 -30 -142z" />
    <glyph glyph-name="h" unicode="h" horiz-adv-x="1425" 
d="M60 0v136l143 28v1220l-135 57v140l431 49l58 -18v-492l-21 -103c122 111 268 134 371 134c287 0 337 -201 333 -524v-464l136 -27v-136l-635 2v134l145 28v414c0 206 -9 354 -185 354c-56 0 -104 -13 -144 -46v-724l98 -26v-136h-595z" />
    <glyph glyph-name="i" unicode="i" horiz-adv-x="748" 
d="M359 1325c-105 0 -206 71 -206 188c0 128 128 224 245 224c143 0 205 -86 205 -189c0 -136 -120 -223 -244 -223zM79 0v136l135 28v622l-128 144v93l396 128l85 -25v-964l144 -26v-136h-632z" />
    <glyph glyph-name="j" unicode="j" horiz-adv-x="684" 
d="M319 1325c-105 0 -205 71 -205 188c0 127 127 224 244 224c143 0 206 -86 206 -189c0 -136 -121 -223 -245 -223zM192 -6v792l-110 147v88l383 130l81 -27v-1172c0 -312 -143 -494 -379 -494c-93 0 -196 27 -207 36v188c23 -7 96 -11 121 -11c101 0 111 106 111 323z" />
    <glyph glyph-name="k" unicode="k" horiz-adv-x="1358" 
d="M69 0v136l134 30v1186l-161 71v142l454 66l61 -28v-892l-13 -141l326 349l-183 21v179h638v-179l-202 -19l-242 -230l341 -533l103 -20v-138h-591v138l83 27l-168 315l-102 -117l9 -83v-118l117 -26v-136h-604z" />
    <glyph glyph-name="l" unicode="l" horiz-adv-x="735" 
d="M70 0v136l118 25v1223l-135 57v140l431 49l58 -18v-1446l175 -30v-136h-647z" />
    <glyph glyph-name="m" unicode="m" horiz-adv-x="2168" 
d="M98 0v136l124 25v658l-136 96v126l372 110l74 -19v-148c83 87 226 162 365 170c145 8 281 -27 340 -159c84 77 200 156 370 156c264 0 375 -174 375 -477v-511l140 -27v-136h-611v136l117 28v465c0 255 -59 295 -207 295c-46 0 -105 -24 -145 -51c7 -33 10 -77 10 -169
v-541l142 -27v-136h-638v136l142 29v471c0 257 -80 298 -227 286c-33 -3 -107 -25 -129 -50v-708l131 -28v-136h-609z" />
    <glyph glyph-name="n" unicode="n" horiz-adv-x="1466" 
d="M97 0v136l125 25v658l-136 96v126l371 110l75 -19v-148c105 101 266 167 419 167c255 -1 328 -166 328 -451v-538l141 -26v-136h-638v136l143 28v491c0 214 -30 265 -197 265c-25 0 -119 -18 -152 -46v-711l123 -27v-136h-602z" />
    <glyph glyph-name="o" unicode="o" horiz-adv-x="1335" 
d="M74 561c5 410 297 587 612 591c357 4 576 -189 576 -561c0 -421 -287 -614 -604 -615c-426 -1 -588 264 -584 585zM669 122c186 0 217 241 217 452c0 190 -30 432 -209 432c-186 0 -227 -221 -227 -417c0 -171 40 -467 219 -467z" />
    <glyph glyph-name="p" unicode="p" horiz-adv-x="1349" 
d="M61 -373l132 29v1163l-136 96v126l371 110l70 -18v-129c14 30 131 147 324 147c239 0 454 -137 454 -556c0 -334 -269 -619 -626 -619c-47 0 -98 9 -118 12l13 -165v-167l213 -29v-138h-697v138zM544 221c21 -45 103 -70 170 -70c84 0 213 78 213 388
c0 352 -150 429 -249 429c-67 0 -116 -47 -134 -68v-679z" />
    <glyph glyph-name="q" unicode="q" horiz-adv-x="1336" 
d="M73 552c0 334 272 599 662 599c69 0 205 -16 273 -63l138 63l52 -23v-1483l132 -24v-132h-677v132l191 23v309l13 123c-36 -36 -122 -100 -275 -100c-209 0 -509 87 -509 576zM696 177c63 0 115 15 148 41v726c-15 30 -66 56 -117 56c-224 0 -279 -161 -285 -397
c-7 -250 69 -426 254 -426z" />
    <glyph glyph-name="r" unicode="r" horiz-adv-x="966" 
d="M98 0v136l123 25v658l-136 96v126l371 110l72 -18v-196c34 134 205 214 288 214c47 0 91 -4 108 -12v-316c-33 31 -125 48 -171 48c-113 0 -167 -31 -178 -38v-663l233 -34v-136h-710z" />
    <glyph glyph-name="s" unicode="s" horiz-adv-x="1095" 
d="M99 66v263h165l63 -109c33 -34 89 -104 188 -109c119 -6 183 45 182 125c-2 73 -124 129 -260 191c-189 87 -359 194 -356 403c3 238 289 316 479 321c152 3 316 -27 398 -58v-273h-176l-56 124c-35 41 -89 79 -148 79c-74 0 -147 -27 -147 -92c0 -87 76 -149 182 -198
c191 -88 422 -166 422 -397c0 -264 -245 -360 -534 -360c-128 0 -294 27 -402 90z" />
    <glyph glyph-name="t" unicode="t" horiz-adv-x="924" 
d="M181 345v595h-152v113c73 12 138 33 183 73c42 38 85 117 129 260h168v-267h342v-179h-326v-365c0 -357 28 -397 123 -397c54 0 138 13 174 35l52 -113c-63 -66 -225 -124 -404 -124c-231 0 -289 114 -289 369z" />
    <glyph glyph-name="u" unicode="u" horiz-adv-x="1331" 
d="M147 391v477l-94 70v122l382 91l53 -17v-696c0 -180 29 -271 153 -271c67 0 145 21 178 53v631l-127 71v138l418 91l56 -17v-998h114v-107c-44 -33 -174 -57 -283 -57c-79 0 -143 30 -143 110v38c-76 -92 -235 -148 -330 -148c-279 0 -377 126 -377 419z" />
    <glyph glyph-name="v" unicode="v" horiz-adv-x="1285" 
d="M504 -5l-397 921l-103 27v176h577v-178l-89 -29l163 -473l54 -189l43 192l146 471l-121 27v179h502v-178l-115 -36l-371 -910h-289z" />
    <glyph glyph-name="w" unicode="w" horiz-adv-x="1842" 
d="M403 -5l-284 918l-116 27v179h568v-179l-98 -27l114 -464l34 -158l23 128l190 700h291l179 -700l31 -141l29 141l109 491l-133 30v179h499v-178l-140 -34l-257 -912h-334l-154 512l-54 215l-38 -215l-138 -512h-321z" />
    <glyph glyph-name="x" unicode="x" horiz-adv-x="1298" 
d="M0 0v136l164 33l309 366l-336 380l-129 25v179h628v-179l-93 -25l37 -54l122 -163l26 42l141 181l-127 19v179h555v-179l-185 -30l-293 -319l351 -424l128 -31v-136h-618v136l84 29l-60 80l-121 159l-14 -35l-132 -197l144 -36v-136h-581z" />
    <glyph glyph-name="y" unicode="y" horiz-adv-x="1233" 
d="M147 -261c34 -7 82 -18 148 -16c63 2 188 30 247 277h-56l-394 914l-87 26v179h585v-179l-114 -25l197 -534l16 -103l29 103l163 536l-137 23v179h508v-179l-100 -21c-297 -752 -362 -897 -391 -975c-117 -312 -232 -486 -455 -486c-28 0 -61 1 -91 3s-57 6 -70 12z" />
    <glyph glyph-name="z" unicode="z" horiz-adv-x="1151" 
d="M98 0l-46 100l115 184l437 594l85 90l-345 -20l-66 -202h-182v373h957l51 -124l-476 -692l-123 -152l363 35l60 172h185l-16 -358h-999z" />
    <glyph glyph-name="braceleft" unicode="{" horiz-adv-x="1133" 
d="M259 10v549c0 65 -84 106 -177 114v221c101 12 177 31 177 105v559c0 197 122 249 276 249c109 0 260 -49 346 -74c0 -42 -1 -84 -1 -126h-307v-636c0 -48 -15 -80 -42 -106c-39 -37 -101 -59 -172 -89c68 -27 127 -50 166 -87c30 -28 48 -64 48 -114v-634h307
c0 -43 1 -85 1 -128c-86 -24 -218 -72 -327 -72c-154 0 -295 42 -295 269z" />
    <glyph glyph-name="bar" unicode="|" horiz-adv-x="1088" 
d="M367 -186v1966h354v-1966h-354z" />
    <glyph glyph-name="braceright" unicode="}" horiz-adv-x="1133" 
d="M247 -59h307v634c0 50 18 86 48 114c38 37 98 60 165 87c-70 30 -132 52 -171 89c-27 26 -42 58 -42 106v636h-307c0 42 -1 84 -1 126c86 25 237 74 346 74c154 0 276 -52 276 -249v-559c0 -74 76 -93 177 -105v-221c-93 -8 -177 -49 -177 -114v-549
c0 -227 -141 -269 -295 -269c-109 0 -241 48 -327 72c0 43 1 85 1 128z" />
    <glyph glyph-name="asciitilde" unicode="~" horiz-adv-x="1317" 
d="M244 726l-98 126c14 76 179 245 345 245c174 0 220 -140 363 -140c94 0 179 65 218 100l99 -126c-12 -85 -169 -247 -342 -247s-210 142 -369 142c-94 0 -175 -64 -216 -100z" />
    <glyph glyph-name="exclamdown" unicode="&#xa1;" horiz-adv-x="813" 
d="M403 1027c-101 0 -203 67 -203 186c0 129 129 227 238 227c141 0 207 -87 207 -194c0 -136 -124 -219 -242 -219zM167 -445l153 1270h182l144 -1270h-479z" />
    <glyph glyph-name="sterling" unicode="&#xa3;" horiz-adv-x="1548" 
d="M3 71c0 78 104 167 323 167c21 52 28 97 28 212v241h-158v199h158v49c0 311 205 629 575 629c113 0 233 -30 325 -107l-157 -284c-18 51 -129 226 -275 226c-91 0 -112 -94 -112 -411v-102h251v-199h-251v-56c0 -203 -29 -328 -123 -430c103 -11 145 -48 292 -53
c134 -5 227 78 227 147c0 72 -70 119 -96 134l136 267c140 -24 262 -169 262 -335c0 -135 -89 -404 -479 -404c-268 0 -378 124 -485 116c-55 -60 -148 -103 -268 -106c-95 -3 -173 33 -173 100z" />
    <glyph glyph-name="currency" unicode="&#xa4;" horiz-adv-x="1491" 
d="M150 254l214 215c-38 64 -59 138 -59 219c0 82 23 158 62 223l-211 215l156 160l218 -221l-1 -1c61 33 131 52 206 52s146 -20 208 -53l240 234l158 -161l-235 -230c38 -63 60 -138 60 -218c0 -78 -20 -151 -56 -213l216 -218l-158 -158l-218 218
c-63 -36 -137 -56 -215 -56c-76 0 -147 19 -209 53l-217 -217zM553 688c0 -98 84 -190 184 -190s180 92 180 190c0 99 -80 189 -180 189s-184 -90 -184 -189z" />
    <glyph glyph-name="brokenbar" unicode="&#xa6;" horiz-adv-x="1088" 
d="M367 907v873h354v-873h-354zM367 -185v873h354v-873h-354z" />
    <glyph glyph-name="dieresis" unicode="&#xa8;" horiz-adv-x="1062" 
d="M781 1349c-93 0 -181 50 -181 140c0 93 106 161 207 161c130 0 178 -60 178 -138c0 -100 -97 -163 -204 -163zM253 1348c-96 0 -177 49 -177 138c0 96 102 164 205 164c130 0 184 -61 184 -140c0 -99 -102 -162 -212 -162z" />
    <glyph glyph-name="copyright" unicode="&#xa9;" horiz-adv-x="2112" 
d="M1056 219c-516 0 -873 363 -873 850s386 851 873 851c483 0 873 -354 873 -851c0 -465 -390 -850 -873 -850zM1055 374c378 0 687 300 687 695c0 398 -309 696 -687 696c-381 0 -686 -298 -686 -696c0 -395 315 -695 686 -695zM1056 586c-313 0 -476 198 -476 475
c0 295 225 528 550 528c148 0 210 -20 265 -50v-306h-190l-68 154c-14 13 -51 17 -78 18c-101 1 -145 -95 -144 -279c1 -212 123 -309 239 -309c54 0 138 0 218 42l43 -127c-65 -86 -232 -146 -359 -146z" />
    <glyph glyph-name="guillemotleft" unicode="&#xab;" horiz-adv-x="2155" 
d="M1101 452v305l739 387l86 -136l-456 -394l456 -376l-86 -148zM229 452v305l739 387l86 -136l-456 -394l456 -376l-86 -148z" />
    <glyph glyph-name="guilsinglleft" unicode="&#x2039;" horiz-adv-x="1283" 
d="M229 452v305l739 387l86 -136l-456 -394l456 -376l-86 -148z" />
    <glyph glyph-name="registered" unicode="&#xae;" horiz-adv-x="2112" 
d="M1056 219c-516 0 -873 363 -873 850s386 851 873 851c483 0 873 -354 873 -851c0 -465 -390 -850 -873 -850zM1055 374c378 0 687 300 687 695c0 398 -309 696 -687 696c-381 0 -686 -298 -686 -696c0 -395 315 -695 686 -695zM599 613v121l78 38v641l-78 27v135h222
c59 -2 179 4 281 4c259 0 398 -74 402 -257c0 -129 -75 -286 -258 -286c197 -7 184 -291 308 -291v-129h-298c-99 0 -77 315 -258 367v-227l71 -22v-121h-470zM998 1139c23 -7 38 -7 72 -7c49 -1 111 33 111 148c0 110 -38 139 -167 139c-6 0 -20 -5 -16 -8v-272z" />
    <glyph glyph-name="macron" unicode="&#xaf;" horiz-adv-x="1082" 
d="M258 1343v241h566v-241h-566z" />
    <glyph glyph-name="degree" unicode="&#xb0;" horiz-adv-x="911" 
d="M455 893c-196 0 -357 159 -357 351s161 350 357 350c198 0 358 -163 358 -350c0 -192 -160 -351 -358 -351zM454 1075c91 0 161 71 161 169c0 93 -70 172 -161 172c-95 0 -161 -73 -161 -172c0 -98 66 -169 161 -169z" />
    <glyph glyph-name="plusminus" unicode="&#xb1;" horiz-adv-x="1328" 
d="M537 342v192l10 188l-155 -10h-211v256h211l155 -10l-10 188v212h262v-212l-10 -188l155 10h211v-256h-211l-155 10l10 -188v-192h-262zM183 0v236h954v-236h-954z" />
    <glyph glyph-name="acute" unicode="&#xb4;" horiz-adv-x="887" 
d="M454 1336l-88 89l315 426l255 -195c-97 -151 -311 -266 -482 -320z" />
    <glyph glyph-name="paragraph" unicode="&#xb6;" horiz-adv-x="1612" 
d="M444 0v143l211 49v464c-260 0 -491 139 -491 451c0 273 149 466 562 466c96 0 517 -17 637 -20h214v-169l-200 -59v-1133l204 -49v-143h-467l-2 1361h-176v-1361h-492z" />
    <glyph glyph-name="periodcentered" unicode="&#xb7;" horiz-adv-x="773" 
d="M367 641c-101 0 -203 67 -203 186c0 129 129 227 238 227c141 0 207 -87 207 -194c0 -136 -124 -219 -242 -219z" />
    <glyph glyph-name="cedilla" unicode="&#xb8;" horiz-adv-x="674" 
d="M194 10h176c-5 -33 -2 -100 2 -141c168 -17 214 -131 214 -193c0 -133 -106 -200 -261 -207c-124 -6 -221 19 -264 30v149c32 -8 109 -14 126 -14c43 0 69 22 69 56c0 39 -29 57 -62 57c-16 0 -54 -3 -58 -4c1 65 32 230 58 267z" />
    <glyph glyph-name="guillemotright" unicode="&#xbb;" horiz-adv-x="2155" 
d="M1095 226l455 393l-455 377l86 148l739 -362v-305l-739 -387zM223 226l455 393l-455 377l86 148l739 -362v-305l-739 -387z" />
    <glyph glyph-name="questiondown" unicode="&#xbf;" horiz-adv-x="1063" 
d="M494 1044c-101 0 -203 67 -203 186c0 129 129 227 238 227c141 0 207 -87 207 -194c0 -136 -124 -219 -242 -219zM145 343c35 59 310 125 392 222c46 54 -56 277 -87 327h250c119 -114 167 -236 167 -310c0 -209 -527 -230 -555 -324c15 -310 320 -389 440 -394
c123 -5 193 5 228 33l15 -272c-18 -28 -151 -55 -250 -51c-651 28 -686 588 -600 769z" />
    <glyph glyph-name="multiply" unicode="&#xd7;" horiz-adv-x="1422" 
d="M363 302l-176 181l362 347l-362 347l175 181l348 -365l348 365l176 -181l-362 -347l362 -347l-175 -181l-348 365z" />
    <glyph glyph-name="germandbls" unicode="&#xdf;" horiz-adv-x="1478" 
d="M46 0v144l152 50v671c0 528 332 688 653 688c146 0 389 -64 389 -277c0 -233 -277 -249 -277 -410c0 -228 485 -142 485 -482c0 -226 -130 -407 -464 -407c-91 0 -275 12 -309 41v197c45 -35 143 -83 258 -83c93 0 177 54 177 165c0 233 -439 77 -439 451
c0 218 247 231 247 474c0 98 -44 171 -144 171c-142 0 -222 -105 -222 -415v-978h-506z" />
    <glyph glyph-name="eth" unicode="&#xf0;" horiz-adv-x="1323" 
d="M64 502c0 394 291 567 571 567c132 0 236 -48 297 -107c-28 154 -114 291 -237 395l-165 -148l-103 86l155 142c-83 49 -177 85 -277 105l26 149c122 -12 258 -52 386 -123l166 154l110 -96l-155 -136c224 -167 401 -442 401 -838c0 -383 -138 -679 -613 -679
c-327 0 -562 216 -562 529zM424 519c0 -223 124 -391 236 -391c125 0 242 101 242 443c0 33 0 63 -9 107c-19 93 -113 232 -241 232c-173 0 -228 -134 -228 -391z" />
    <glyph glyph-name="endash" unicode="&#x2013;" horiz-adv-x="1510" 
d="M183 722v236h1144v-236h-1144z" />
    <glyph glyph-name="emdash" unicode="&#x2014;" horiz-adv-x="2415" 
d="M183 724v234h2049v-234h-2049z" />
    <glyph glyph-name="quoteleft" unicode="&#x2018;" horiz-adv-x="922" 
d="M460 760c-205 71 -269 298 -266 432c8 310 247 512 432 579l103 -93v-43c-81 -32 -195 -183 -195 -311c0 -91 76 -190 158 -198v-78z" />
    <glyph glyph-name="quoteright" unicode="&#x2019;" horiz-adv-x="922" 
d="M297 763l-104 92v43c82 31 196 183 196 311c0 91 -78 190 -160 198v77l232 289c205 -72 270 -298 267 -431c-8 -310 -249 -513 -431 -579z" />
    <glyph glyph-name="quotesinglbase" unicode="&#x201a;" horiz-adv-x="922" 
d="M229 75v77l232 288c205 -71 270 -297 267 -431c-7 -309 -249 -482 -431 -549l-104 93v43c82 31 195 153 195 281c0 92 -77 190 -159 198z" />
    <glyph glyph-name="quotedblleft" unicode="&#x201c;" horiz-adv-x="1537" 
d="M1074 759c-204 72 -272 299 -266 431c7 310 250 512 430 580l106 -94v-42c-83 -31 -197 -183 -197 -311c0 -92 78 -190 160 -198v-77zM460 759c-206 72 -271 299 -266 431c6 310 250 512 431 580l105 -94v-42c-84 -31 -196 -183 -196 -311c0 -92 76 -190 158 -198v-77z
" />
    <glyph glyph-name="quotedblright" unicode="&#x201d;" horiz-adv-x="1538" 
d="M806 851v43c85 31 197 183 197 311c0 91 -76 190 -158 198v77l231 289c207 -72 271 -298 268 -431c-7 -310 -250 -513 -431 -579zM299 759l-106 92v43c83 31 197 183 197 311c0 91 -78 190 -160 198v77l232 289c205 -72 272 -298 267 -431c-7 -310 -250 -513 -430 -579z
" />
    <glyph glyph-name="quotedblbase" unicode="&#x201e;" horiz-adv-x="1488" 
d="M796 78v77l232 289c206 -72 271 -299 266 -432c-6 -309 -250 -511 -431 -579l-106 94v42c85 31 197 182 197 310c0 92 -77 191 -158 199zM231 78v77l233 289c204 -72 272 -299 266 -432c-7 -309 -250 -511 -430 -579l-107 94v42c84 31 197 182 197 310
c0 92 -77 191 -159 199z" />
    <glyph glyph-name="dagger" unicode="&#x2020;" horiz-adv-x="1121" 
d="M462 263l-59 592l33 240l-308 -39l1 270l309 -49l-40 280v91h325v-91l-40 -280l309 49l1 -270l-308 39l33 -240l-79 -592h-177z" />
    <glyph glyph-name="bullet" unicode="&#x2022;" horiz-adv-x="919" 
d="M443 442c-183 0 -340 156 -324 335c13 186 175 330 359 330c183 0 337 -144 323 -330c-14 -187 -172 -335 -358 -335z" />
    <glyph glyph-name="guilsinglright" unicode="&#x203a;" horiz-adv-x="1283" 
d="M223 226l455 393l-455 377l86 148l739 -362v-305l-739 -387z" />
    <glyph glyph-name="quotedbl" unicode="&#x22;" horiz-adv-x="1261" 
d="M807 956l-85 826h365l-85 -826h-195zM259 956l-85 826h365l-85 -826h-195z" />
    <glyph glyph-name="exclam" unicode="!" horiz-adv-x="813" 
d="M311 568l-144 1212h479l-153 -1212h-182zM179 154c0 129 129 227 238 227c141 0 207 -87 207 -194c0 -136 -124 -219 -242 -219c-101 0 -203 67 -203 186z" />
    <glyph glyph-name="logicalnot" unicode="&#xac;" horiz-adv-x="1392" 
d="M183 745v213h1026v-591h-314v378h-712z" />
    <glyph glyph-name="yen" unicode="&#xa5;" horiz-adv-x="1526" 
d="M325 0v140l240 45v165h-360v167h360v137l-34 57h-326v168h227l-288 490l-116 20v164h630v-161l-106 -20l167 -359l57 -134h14l65 143c50 108 100 228 150 343l-155 24l-1 164h563v-164l-140 -40l-254 -470h278v-168h-369l-6 -11v-183h375v-167h-375v-163l258 -47v-140
h-854z" />
    <glyph glyph-name="divide" unicode="&#xf7;" horiz-adv-x="1400" 
d="M713 1145c-101 0 -198 67 -198 186c0 129 124 222 233 222c141 0 201 -82 201 -189c0 -136 -118 -219 -236 -219zM183 722v236h1034v-236h-1034zM514 313c0 129 124 222 233 222c141 0 201 -82 201 -189c0 -136 -118 -219 -236 -219c-101 0 -198 67 -198 186z" />
    <glyph glyph-name="daggerdbl" unicode="&#x2021;" horiz-adv-x="1121" 
d="M128 425l1 270l309 -49l-35 209l33 240l-308 -39l1 270l309 -49l-40 280v91h325v-91l-40 -280l309 49l1 -270l-308 39l33 -240l-35 -209l309 49l1 -270l-308 39l33 -240l-78 -592h-177l-60 592l33 240z" />
    <glyph glyph-name="uni200A" unicode="&#x200a;" horiz-adv-x="205" 
 />
    <glyph glyph-name="uni2009" unicode="&#x2009;" horiz-adv-x="410" 
 />
    <glyph glyph-name="uni2008" unicode="&#x2008;" horiz-adv-x="723" 
 />
    <glyph glyph-name="uni2007" unicode="&#x2007;" horiz-adv-x="1288" 
 />
    <glyph glyph-name="uni2006" unicode="&#x2006;" horiz-adv-x="342" 
 />
    <glyph glyph-name="uni2005" unicode="&#x2005;" horiz-adv-x="512" 
 />
    <glyph glyph-name="uni2004" unicode="&#x2004;" horiz-adv-x="682" 
 />
    <glyph glyph-name="uni2003" unicode="&#x2003;" horiz-adv-x="2048" 
 />
    <glyph glyph-name="uni2000" unicode="&#x2000;" horiz-adv-x="3072" 
 />
    <glyph glyph-name="uni2001" unicode="&#x2001;" horiz-adv-x="2048" 
 />
    <glyph glyph-name="cent" unicode="&#xa2;" horiz-adv-x="1214" 
d="M513 -15c-272 51 -418 264 -419 540c-2 358 233 578 542 619l13 218h193l-12 -213c106 -7 210 -25 254 -50v-317h-183l-79 188c-37 22 -89 25 -132 25c-136 0 -221 -137 -229 -371c-11 -323 148 -455 326 -455c121 0 232 34 281 71l53 -125c-96 -82 -240 -132 -415 -141
l-10 -191h-195z" />
    <glyph glyph-name="uni2002" unicode="&#x2002;" horiz-adv-x="1024" 
 />
    <glyph glyph-name="circumflex" unicode="&#x2c6;" horiz-adv-x="1063" 
d="M262 1335l-131 74l271 366h253l277 -365l-145 -74l-259 206z" />
    <glyph glyph-name="caron" unicode="&#x2c7;" horiz-adv-x="1061" 
d="M406 1335l-271 366l131 74l266 -207l259 206l145 -74l-277 -365h-253z" />
    <glyph glyph-name="breve" unicode="&#x2d8;" horiz-adv-x="1436" 
d="M718 1344c-250 0 -374 186 -374 349h211c7 -32 35 -148 164 -148c124 0 157 116 166 149h207c0 -163 -135 -350 -374 -350z" />
    <glyph glyph-name="dotaccent" unicode="&#x2d9;" horiz-adv-x="709" 
d="M337 1328c-96 0 -177 49 -177 138c0 96 102 164 205 164c130 0 184 -61 184 -140c0 -99 -102 -162 -212 -162z" />
    <glyph glyph-name="ring" unicode="&#x2da;" horiz-adv-x="635" 
d="M318 1285c-161 0 -293 123 -293 275c0 151 132 275 293 275c163 0 295 -129 295 -275c0 -152 -132 -275 -295 -275zM318 1427c75 0 132 56 132 133c0 73 -57 134 -132 134c-79 0 -133 -57 -133 -134s54 -133 133 -133z" />
    <glyph glyph-name="tilde" unicode="&#x2dc;" horiz-adv-x="1081" 
d="M199 1369l-87 98c44 118 216 208 308 208c146 0 208 -100 293 -100c71 0 122 37 166 71l89 -97c-45 -118 -208 -211 -301 -211c-145 0 -214 103 -300 103c-59 0 -121 -38 -168 -72z" />
    <glyph glyph-name="hungarumlaut" unicode="&#x2dd;" horiz-adv-x="975" 
d="M692 1322l-136 99l285 416l231 -165c-76 -100 -257 -308 -380 -350zM125 1322l-143 99l290 416l222 -165c-70 -101 -247 -294 -369 -350z" />
    <glyph glyph-name="ogonek" unicode="&#x2db;" horiz-adv-x="769" 
d="M154 0l118 10l126 -10c-150 -51 -268 -143 -286 -195c-32 -91 20 -102 64 -103c78 -3 166 27 238 54l35 -134c-131 -94 -281 -136 -454 -136c-154 0 -208 87 -213 163c-5 95 130 266 372 351z" />
    <glyph glyph-name="onehalf" unicode="&#xbd;" horiz-adv-x="2732" 
d="M842 -268l796 2149l214 -63l-800 -2161zM295 718v137l259 40v519c-52 -5 -165 -23 -231 -35l-36 155c139 23 467 149 516 188l81 -15v-813l236 -39v-137h-825zM1564 154c142 79 626 348 586 528c-13 57 -61 116 -176 116c-128 0 -242 -104 -307 -166l-83 118
c61 108 259 258 459 258c279 0 429 -105 429 -293c0 -227 -264 -366 -611 -572l479 86l100 149l163 -44l-68 -336h-908z" />
    <glyph glyph-name="onesuperior" unicode="&#xb9;" horiz-adv-x="1124" 
d="M199 718v137l259 40v519c-52 -5 -165 -23 -231 -35l-36 155c139 23 467 149 516 188l81 -15v-813l236 -39v-137h-825z" />
    <glyph glyph-name="twosuperior" unicode="&#xb2;" horiz-adv-x="1238" 
d="M202 720l-63 156c142 79 626 348 586 528c-13 57 -61 116 -176 116c-128 0 -242 -104 -307 -166l-83 118c61 108 259 258 459 258c279 0 429 -105 429 -293c0 -227 -264 -366 -611 -572l479 86l100 149l163 -44l-68 -336h-908z" />
    <glyph glyph-name="onequarter" unicode="&#xbc;" horiz-adv-x="2732" 
d="M842 -268l796 2158l214 -72l-800 -2161zM295 718v137l259 40v519c-52 -5 -165 -23 -231 -35l-36 155c139 23 467 149 516 188l81 -15v-813l236 -39v-137h-825zM1470 256l519 800h124l136 -156l-457 -527l-81 -94l321 35l12 198l249 29v-199l199 22v-257h-199l1 -284h-290
l16 284h-499z" />
    <glyph glyph-name="threequarters" unicode="&#xbe;" horiz-adv-x="2902" 
d="M842 -268l796 2149l214 -63l-800 -2161zM339 656v147c59 -15 162 -27 218 -23c166 11 267 61 286 144c7 32 26 158 -129 201l-230 -56l3 163c163 49 287 104 317 179c7 19 7 43 5 67c-4 60 -100 74 -145 75c-71 2 -190 -25 -293 -88l-71 120c74 70 274 141 443 138
c289 -6 369 -162 369 -240c0 -106 -43 -187 -196 -255c229 -29 253 -224 253 -251c0 -175 -150 -361 -503 -361c-177 0 -270 26 -327 40zM1470 256l499 800h144l136 -156l-457 -527l-81 -94l321 35l12 198l249 29v-199l199 22v-257h-199l1 -284h-290l16 284h-499z" />
    <glyph glyph-name="threesuperior" unicode="&#xb3;" horiz-adv-x="1137" 
d="M198 656v147c59 -15 162 -27 218 -23c166 11 267 61 286 144c7 32 26 158 -129 201l-230 -56l3 163c163 49 287 104 317 179c7 19 7 43 5 67c-4 60 -100 74 -145 75c-71 2 -190 -25 -293 -88l-71 120c74 70 274 141 443 138c289 -6 369 -162 369 -240
c0 -106 -43 -187 -196 -255c229 -29 253 -224 253 -251c0 -175 -150 -361 -503 -361c-177 0 -270 26 -327 40z" />
    <glyph glyph-name="grave.cap" horiz-adv-x="1062" 
d="M573 1593c-45 -3 -352 50 -465 135l193 192l373 -220z" />
    <glyph glyph-name="dieresis.cap" horiz-adv-x="1062" 
d="M791 1619c-93 0 -181 50 -181 140c0 93 106 161 207 161c130 0 178 -60 178 -138c0 -100 -97 -163 -204 -163zM243 1618c-96 0 -177 49 -177 138c0 96 102 164 205 164c130 0 184 -61 184 -140c0 -99 -102 -162 -212 -162z" />
    <glyph glyph-name="commabelow" horiz-adv-x="767" 
d="M153 -203l148 163c140 0 263 -105 263 -281c0 -172 -173 -295 -254 -319l-128 51v21c31 34 96 71 96 154c0 71 -57 134 -125 134v77z" />
    <glyph glyph-name="commaaccent" horiz-adv-x="767" 
d="M153 -203l148 163c140 0 263 -105 263 -281c0 -172 -173 -295 -254 -319l-128 51v21c31 34 96 71 96 154c0 71 -57 134 -125 134v77z" />
    <glyph glyph-name="circumflex.cap" horiz-adv-x="1062" 
d="M252 1597l-111 73l275 250h232l270 -250l-112 -73l-272 129z" />
    <glyph glyph-name="caron.cap" horiz-adv-x="1064" 
d="M411 1597l-280 250l112 73l282 -128l292 128l111 -73l-285 -250h-232z" />
    <glyph glyph-name="breve.cap" horiz-adv-x="728" 
d="M364 1580c-250 0 -374 177 -374 340h211c7 -32 35 -139 164 -139c124 0 157 106 166 139h207c0 -163 -135 -340 -374 -340z" />
    <glyph glyph-name="ring.cap" horiz-adv-x="708" 
d="M353 1428c-152 0 -297 86 -297 245c0 158 127 247 297 247c172 0 299 -94 299 -247c0 -159 -145 -245 -299 -245zM353 1555c71 0 125 50 125 119c0 65 -54 120 -125 120c-75 0 -126 -51 -126 -120s51 -119 126 -119z" />
    <glyph glyph-name="ogonek.cap" horiz-adv-x="769" 
d="M153 0l105 6l139 -6c-136 -35 -268 -143 -286 -195c-32 -91 20 -102 64 -103c66 -3 138 27 198 54l35 -134c-113 -97 -257 -136 -414 -136c-154 0 -208 87 -213 163c-5 95 130 266 372 351z" />
    <glyph glyph-name="tilde.cap" horiz-adv-x="1063" 
d="M190 1634l-87 78c44 118 216 208 308 208c146 0 208 -100 293 -100c71 0 122 33 166 71l89 -97c-45 -118 -208 -191 -301 -191c-145 0 -214 103 -300 103c-59 0 -121 -34 -168 -72z" />
    <glyph glyph-name="hungarumlaut.cap" horiz-adv-x="1081" 
d="M625 1481l-87 86l298 353l230 -214c-152 -171 -374 -234 -441 -225zM104 1481l-89 86l299 353l228 -214c-151 -171 -373 -234 -438 -225z" />
    <glyph glyph-name="percent" unicode="%" horiz-adv-x="2137" 
d="M562 -177l722 1947h240l-724 -1947h-238zM483 692c-231 -1 -374 166 -374 361c0 239 194 373 408 374c262 1 374 -162 374 -365c0 -238 -194 -369 -408 -370zM511 835c78 0 127 86 127 220c0 137 -70 229 -137 229c-80 0 -140 -86 -140 -223c0 -123 82 -226 150 -226z
M1223 525c0 239 194 373 408 374c262 1 374 -162 374 -365c0 -238 -194 -370 -408 -370c-231 0 -374 166 -374 361zM1481 533c0 -123 82 -226 150 -226c78 0 127 86 127 220c0 137 -70 229 -137 229c-80 0 -140 -86 -140 -223z" />
    <glyph glyph-name="foundryicon" horiz-adv-x="1939" 
d="M618 1701c-38 0 -70 26 -70 58c0 34 41 112 70 161c45 -65 72 -127 72 -161c0 -32 -32 -58 -72 -58zM605 128c0 46 32 60 53 60c22 0 50 -16 50 -60c0 -108 23 -141 92 -141c53 0 85 34 85 190h22v492h-35c0 23 15 41 35 48v192h-775c0 274 348 515 773 507l5 160h40
l9 -160c426 8 773 -233 773 -507h-768v-732l21 1c0 -197 -57 -286 -185 -286c-120 0 -195 57 -195 236z" />
    <glyph glyph-name="dotlessi" unicode="&#x131;" horiz-adv-x="748" 
d="M79 0v136l135 28v622l-128 144v93l396 134l85 -25v-970l141 -26v-136h-629z" />
    <glyph glyph-name="oslash" unicode="&#xf8;" horiz-adv-x="1335" 
d="M372 -178l57 185c-256 79 -358 298 -355 554c5 410 297 587 612 591c37 0 73 -1 107 -5l50 164l110 -26l-49 -160c226 -64 358 -246 358 -534c0 -421 -287 -614 -604 -615c-41 0 -80 3 -116 7l-57 -188zM511 245l230 748c-19 8 -40 13 -64 13c-186 0 -227 -221 -227 -417
c0 -100 14 -243 61 -344zM599 139c21 -11 44 -17 70 -17c186 0 217 241 217 452c0 111 -10 240 -55 328z" />
    <glyph glyph-name="aogonek" unicode="&#x105;" horiz-adv-x="1226" 
d="M71 394c56 234 455 308 653 308c0 213 -77 258 -213 258c-173 0 -302 -65 -331 -86l-68 154c42 36 223 123 506 123c269 0 460 -85 460 -411v-604h131v-107c-12 -8 -25 -15 -38 -21c-105 -69 -213 -150 -201 -256c8 -76 112 -80 233 -56v-147
c-151 -110 -495 -92 -512 106c-14 159 115 262 208 322c-56 9 -125 37 -129 109c-69 -65 -162 -114 -290 -114c-349 0 -461 205 -409 422zM417 335c0 -129 75 -188 216 -168c36 5 65 20 90 39c0 114 1 229 1 343c-125 0 -307 -38 -307 -214z" />
    <glyph glyph-name="Thorn" unicode="&#xde;" horiz-adv-x="1378" 
d="M71 0v140l164 43v1181l-212 25v164h765v-164l-199 -25v-153c71 8 151 17 222 17c344 0 564 -108 564 -408c0 -332 -223 -508 -595 -508c-76 0 -151 4 -191 7v-137l254 -42v-140h-772zM589 483c26 -5 93 -7 147 -7c167 0 269 131 269 321c0 193 -137 261 -304 259
c-68 -1 -95 -3 -112 -5v-568z" />
    <glyph glyph-name="ordfeminine" unicode="&#xaa;" horiz-adv-x="1169" 
d="M435 733c-132 0 -270 86 -270 253c0 241 375 294 519 294v18c0 106 -71 121 -177 121c-95 0 -194 -28 -230 -53l-52 149c38 23 201 77 389 77c192 0 380 -36 379 -296l-2 -410h83v-106c-59 -14 -168 -47 -255 -47c-55 0 -101 11 -119 78c-50 -42 -136 -78 -265 -78z
M539 904c38 -12 81 -8 146 10l-3 15l1 235c-87 -11 -224 -46 -224 -150c0 -41 23 -91 80 -110z" />
    <glyph glyph-name="ordmasculine" unicode="&#xba;" horiz-adv-x="1169" 
d="M566 732c-275 -1 -447 147 -443 434c4 316 261 422 463 427c299 7 463 -172 460 -437c-4 -314 -266 -423 -480 -424zM590 866c96 0 143 50 143 285c0 201 -65 313 -143 312c-59 -1 -154 -41 -154 -294c0 -205 73 -303 154 -303z" />
    <glyph glyph-name="section" unicode="&#xa7;" horiz-adv-x="1353" 
d="M185 -188v401h143l97 -206c42 -84 142 -103 227 -103c120 0 224 40 224 148c0 286 -744 274 -744 704c0 109 74 252 173 327c-87 68 -147 152 -147 266c0 270 281 423 554 423c179 0 322 -34 385 -69v-307h-142l-122 171c-19 24 -62 50 -148 50c-74 0 -189 -58 -190 -197
c-2 -268 699 -226 696 -687c-1 -125 -54 -243 -132 -318c94 -66 161 -149 161 -264c-1 -323 -259 -416 -550 -416c-211 0 -424 42 -485 77zM426 827c0 -146 236 -215 451 -313c18 37 35 85 35 120c0 159 -235 239 -442 347c-24 -39 -44 -95 -44 -154z" />
    <glyph glyph-name="acute.cap" horiz-adv-x="905" 
d="M312 1593l-101 107l393 220l193 -192c-113 -85 -440 -138 -485 -135z" />
    <glyph glyph-name="AE" unicode="&#xc6;" horiz-adv-x="1937" 
d="M5 0v141l121 33l554 1379h1063l36 -342h-193l-65 149l-429 22l150 -483l252 6l37 150h159v-495h-160l-39 144l-193 15l176 -570l168 29l111 188l174 -34l-51 -332h-939v140l158 41l-46 155h-612l-59 -154l177 -41v-141h-550zM511 531h481l-171 581l-33 150z" />
    <glyph glyph-name="dollar" unicode="$" horiz-adv-x="1366" 
d="M127 64v405h150l93 -241c71 -94 178 -102 282 -102s237 49 237 222c0 136 -179 219 -364 319c-199 108 -405 236 -404 474c1 253 225 402 474 423l5 207h214l-5 -211c162 -13 301 -45 333 -65v-331h-164l-94 210c-12 15 -108 47 -191 47c-107 0 -232 -37 -234 -164
c0 -149 134 -240 292 -327c224 -124 495 -241 494 -509c-1 -239 -196 -424 -527 -446l-9 -216h-224l9 221c-146 13 -292 44 -367 84z" />
    <glyph glyph-name="Oslash" unicode="&#xd8;" horiz-adv-x="1600" 
d="M378 -169l88 212c-257 122 -407 390 -400 711c12 504 371 813 752 813c74 0 145 -10 210 -28l53 153l128 -44l-56 -158c242 -123 387 -382 381 -700c-11 -504 -323 -818 -737 -818c-74 0 -143 9 -207 26l-89 -212zM573 288l371 1070c-38 28 -83 44 -135 44
c-265 0 -350 -229 -350 -647c0 -140 33 -333 114 -467zM674 175c39 -27 84 -43 136 -43c260 0 332 218 332 657c0 147 -29 322 -97 448z" />
    <glyph glyph-name="Lslash" unicode="&#x141;" horiz-adv-x="1288" 
d="M93 0v140l142 38v363l-168 -67s2 240 1 242c-1 0 68 31 167 73v558l-137 21v185h678v-185l-182 -22v-402l413 178v-272l-413 -166v-521l360 39l167 237l152 -56l-69 -383h-1111z" />
    <glyph glyph-name="Euro" unicode="&#x20ac;" horiz-adv-x="1697" 
d="M87 524v167h179v23c0 56 4 113 13 171h-162v171h202c92 275 311 511 731 511c220 0 344 -99 458 -71l-18 -378h-158l-72 190c-64 50 -155 77 -264 77c-211 0 -290 -125 -317 -329h443v-171h-456c-1 -38 -1 -78 -1 -119c0 -26 0 -51 1 -75h438v-167h-425
c32 -229 126 -377 361 -379c70 -1 118 13 153 33c85 50 99 161 128 247h186v-362c-145 26 -196 -91 -517 -91c-370 0 -634 216 -705 552h-198z" />
    <glyph glyph-name="ae" unicode="&#xe6;" horiz-adv-x="1893" 
d="M71 394c56 234 455 308 653 308c0 23 -1 45 -3 64c-15 158 -89 189 -210 189c-173 0 -302 -65 -331 -86l-68 159c42 36 223 123 506 123c149 0 275 -26 357 -106c97 67 220 106 366 106c324 0 457 -174 466 -418c3 -83 -6 -147 -14 -203h-707c19 -235 125 -357 327 -357
c97 0 221 23 329 71l53 -129c-102 -85 -307 -147 -501 -143c-177 4 -316 51 -412 139c-80 -79 -206 -139 -402 -139c-349 0 -461 205 -409 422zM1085 691h378c10 127 36 320 -154 320c-39 0 -74 -12 -104 -35c-66 -50 -109 -150 -120 -285zM417 335c0 -129 75 -188 216 -168
c41 6 69 17 90 29c0 118 1 235 1 353c-125 0 -307 -38 -307 -214z" />
    <glyph glyph-name="mu" unicode="&#xb5;" horiz-adv-x="1564" 
d="M234 -373v1231l-109 70v128l403 95l53 -17v-722c0 -180 79 -227 183 -227c67 0 126 11 148 25v641l-127 71v138l418 91l56 -17v-998h114v-107c-44 -33 -174 -57 -283 -57c-79 0 -143 30 -143 110v28c-76 -92 -176 -138 -271 -138c-34 0 -65 4 -95 10v-355h-347z" />
    <glyph glyph-name="mu" unicode="&#x3bc;" horiz-adv-x="1564" 
d="M234 -373v1231l-109 70v128l403 95l53 -17v-722c0 -180 79 -227 183 -227c67 0 126 11 148 25v641l-127 71v138l418 91l56 -17v-998h114v-107c-44 -33 -174 -57 -283 -57c-79 0 -143 30 -143 110v28c-76 -92 -176 -138 -271 -138c-34 0 -65 4 -95 10v-355h-347z" />
    <glyph glyph-name="eogonek" unicode="&#x119;" horiz-adv-x="1239" 
d="M73 531c0 342 230 620 614 620c324 0 457 -174 466 -418c3 -83 -6 -147 -14 -203h-697c18 -235 121 -357 317 -357c97 0 211 19 319 67l53 -125c-1 -1 -2 -1 -2 -2l2 1c-164 -115 -250 -244 -250 -331c0 -96 171 -115 292 -87v-137c-131 -90 -549 -133 -549 101
c0 152 100 252 220 331c-65 -13 -135 -20 -204 -19c-363 7 -567 208 -567 559zM443 691h366c8 98 25 237 -56 294c-24 17 -55 26 -98 26c-155 0 -202 -166 -212 -320z" />
    <glyph glyph-name="thorn" unicode="&#xfe;" horiz-adv-x="1348" 
d="M170 60v1324l-125 57v140l422 48l57 -17v-524c65 36 154 63 263 63c247 0 488 -147 488 -546c0 -326 -248 -633 -631 -633c-45 0 -90 3 -135 7l15 -82v-240l214 -28v-140h-723v140l156 30c0 134 -1 268 -1 401zM524 201c18 -34 61 -84 156 -84c113 0 227 89 238 450
c9 285 -142 409 -268 409c-54 0 -96 -9 -126 -19v-756z" />
    <glyph glyph-name="lslash" unicode="&#x142;" horiz-adv-x="735" 
d="M70 0v136l118 25v485l-116 -40v248l116 42v488l-135 57v140l431 49l58 -18v-585l195 72v-264l-195 -67v-602l175 -30v-136h-647z" />
    <glyph glyph-name="dotlessj" unicode="&#x237;" horiz-adv-x="684" 
d="M192 -2v788l-110 147v88l383 130l81 -27v-1140c0 -312 -159 -499 -395 -499c-28 0 -180 6 -191 15v226c23 -7 111 -11 136 -11c88 0 96 81 96 283z" />
    <glyph glyph-name="oe" unicode="&#x153;" horiz-adv-x="2168" 
d="M74 561c5 410 297 587 612 591c213 2 377 -66 475 -201c105 123 265 200 467 200c324 0 457 -174 466 -418c3 -83 -6 -147 -14 -203h-697c18 -235 121 -357 317 -357c97 0 211 19 319 67l53 -125c-102 -85 -297 -147 -491 -143c-209 4 -366 72 -461 196
c-113 -130 -283 -191 -462 -192c-426 -1 -588 264 -584 585zM1384 691h366c8 98 25 237 -56 294c-24 17 -55 26 -98 26c-155 0 -202 -166 -212 -320zM669 122c186 0 217 241 217 452c0 190 -30 432 -209 432c-186 0 -227 -221 -227 -417c0 -171 40 -467 219 -467z" />
    <glyph glyph-name="kgreenlandic" unicode="&#x138;" horiz-adv-x="1358" 
d="M69 0v136l134 30v653l-136 95v127l371 110l119 -32v-411l-13 -138l326 349l-183 21v179h638v-179l-202 -19l-242 -230l341 -533l103 -20v-138h-591v138l83 27l-168 315l-102 -117l9 -83v-118l117 -26v-136h-604z" />
    <glyph glyph-name="ldot" unicode="&#x140;" horiz-adv-x="1145" 
d="M67 0v136l118 25v1223l-135 57v140l431 49l58 -18v-1446l175 -30v-136h-647zM702 789c0 129 129 227 238 227c141 0 207 -87 207 -194c0 -136 -124 -219 -242 -219c-101 0 -203 67 -203 186z" />
    <glyph glyph-name="OE" unicode="&#x152;" horiz-adv-x="2222" 
d="M66 754c12 504 371 813 752 813c52 0 103 -5 151 -14h1055l31 -342h-175l-94 160l-370 21v-527l261 10l44 146h161v-488h-161l-44 159l-261 6v-538l457 28l127 198l178 -37l-54 -349h-1122c-65 -18 -134 -28 -205 -28c-454 0 -740 341 -731 782zM810 132
c120 0 199 46 251 139v935c-53 114 -135 196 -252 196c-265 0 -350 -229 -350 -647c0 -235 94 -623 351 -623z" />
    <glyph glyph-name="uni0001" 
 />
    <glyph glyph-name="uni0002" 
 />
    <glyph glyph-name="uni0003" 
 />
    <glyph glyph-name="uni0019" 
 />
    <glyph glyph-name="uni0018" 
 />
    <glyph glyph-name="uni0017" 
 />
    <glyph glyph-name="uni0016" 
 />
    <glyph glyph-name="uni0015" 
 />
    <glyph glyph-name="uni0014" 
 />
    <glyph glyph-name="uni0013" 
 />
    <glyph glyph-name="uni0012" 
 />
    <glyph glyph-name="uni0011" 
 />
    <glyph glyph-name="uni0010" 
 />
    <glyph glyph-name="uni0009" unicode="&#x9;" 
 />
    <glyph glyph-name="uni0008" 
 />
    <glyph glyph-name="uni0007" 
 />
    <glyph glyph-name="uni0006" 
 />
    <glyph glyph-name="uni0005" 
 />
    <glyph glyph-name="uni0004" 
 />
    <glyph glyph-name="hbar" unicode="&#x127;" horiz-adv-x="1425" 
d="M60 0v136l143 28v1003h-159v127h159v90l-135 57v140l431 49l58 -18v-318h183v-127h-183v-47l-21 -103c122 111 268 134 371 134c287 0 337 -201 333 -524v-464l136 -27v-136l-635 2v134l145 28v414c0 206 -9 354 -185 354c-56 0 -104 -13 -144 -46v-724l98 -26v-136h-595
z" />
    <glyph glyph-name="Ldotaccent" unicode="&#x13f;" horiz-adv-x="1427" 
d="M93 0v140l142 38v1169l-137 21v185h678v-185l-182 -22v-1183l360 39l167 237l152 -56l-69 -383h-1111zM996 827c0 129 129 227 238 227c141 0 207 -87 207 -194c0 -136 -124 -219 -242 -219c-101 0 -203 67 -203 186z" />
    <glyph glyph-name="trademark" unicode="&#x2122;" horiz-adv-x="2337" 
d="M1011 777v90l116 23l26 538l-91 12v113h386l126 -354l21 -93l145 447h368v-113l-89 -11l35 -540l100 -23v-89h-407v89l74 19l4 346c0 19 1 39 3 207l-15 -73l-203 -596h-81l-228 556l-34 108l7 -152l-6 -392l93 -22v-90h-350zM352 777v90l115 19v540l-151 -26l-37 -112
l-96 -4l12 269h760l9 -263l-86 -9l-48 126l-126 19v-539l120 -20v-90h-472z" />
    <glyph glyph-name="perthousand" unicode="&#x2030;" horiz-adv-x="3016" 
d="M562 -177l722 1947h240l-724 -1947h-238zM483 692c-231 -1 -374 166 -374 361c0 239 194 373 408 374c262 1 374 -162 374 -365c0 -238 -194 -369 -408 -370zM511 835c78 0 127 86 127 220c0 137 -70 229 -137 229c-80 0 -140 -86 -140 -223c0 -123 82 -226 150 -226z
M2098 525c0 239 194 373 408 374c262 1 374 -162 374 -365c0 -238 -194 -370 -408 -370c-231 0 -374 166 -374 361zM1223 525c0 239 194 373 408 374c262 1 374 -162 374 -365c0 -238 -194 -370 -408 -370c-231 0 -374 166 -374 361zM2356 533c0 -123 82 -226 150 -226
c78 0 127 86 127 220c0 137 -70 229 -137 229c-80 0 -140 -86 -140 -223zM1481 533c0 -123 82 -226 150 -226c78 0 127 86 127 220c0 137 -70 229 -137 229c-80 0 -140 -86 -140 -223z" />
    <glyph glyph-name="ellipsis" unicode="&#x2026;" horiz-adv-x="2397" 
d="M1773 157c0 129 129 227 238 227c141 0 207 -87 207 -194c0 -136 -124 -219 -242 -219c-101 0 -203 67 -203 186zM976 157c0 129 129 227 238 227c141 0 207 -87 207 -194c0 -136 -124 -219 -242 -219c-101 0 -203 67 -203 186zM179 157c0 129 129 227 238 227
c141 0 207 -87 207 -194c0 -136 -124 -219 -242 -219c-101 0 -203 67 -203 186z" />
    <glyph glyph-name="Eth" unicode="&#xd0;" horiz-adv-x="1611" 
d="M90 0v140l145 40v524h-186v207h186v457l-141 21v164h328c87 0 222 14 351 14c548 0 778 -308 778 -745c0 -524 -330 -832 -805 -832c-100 0 -241 11 -318 11c-112 0 -226 -1 -338 -1zM593 179c49 -31 131 -40 237 -30c199 18 346 257 346 599c0 439 -141 654 -427 659
c-59 1 -127 -11 -156 -29v-467h274v-207h-274v-525z" />
    <glyph glyph-name="kcommaaccent" unicode="&#x137;" horiz-adv-x="1358" 
d="M69 0v136l134 30v1186l-161 71v142l454 66l61 -28v-892l-13 -141l326 349l-183 21v179h638v-179l-202 -19l-242 -230l341 -533l103 -20v-138h-591v138l83 27l-168 315l-102 -117l9 -83v-118l117 -26v-136h-604zM473 -203l148 163c140 0 263 -105 263 -281
c0 -172 -173 -295 -254 -319l-128 51v21c31 34 96 71 96 154c0 71 -57 134 -125 134v77z" />
    <glyph glyph-name="florin" unicode="&#x192;" horiz-adv-x="986" 
d="M188 -354l98 1267h-183l8 105l189 79l9 105c18 234 221 532 518 532c63 0 149 -11 193 -32l-21 -260c-18 8 -117 55 -199 55c-88 0 -138 -13 -152 -189l-15 -189h264l-1 -206h-279l-98 -1267h-331z" />
    <glyph glyph-name="approxequal" unicode="&#x2248;" horiz-adv-x="1391" 
d="M281 925l-98 126c14 76 179 245 345 245c174 0 220 -140 363 -140c94 0 179 65 218 100l99 -126c-12 -85 -169 -247 -342 -247s-210 142 -369 142c-94 0 -175 -64 -216 -100zM281 338l-98 126c14 76 179 245 345 245c174 0 220 -140 363 -140c94 0 179 65 218 100
l99 -126c-12 -85 -169 -247 -342 -247s-210 142 -369 142c-94 0 -175 -64 -216 -100z" />
    <glyph glyph-name="Delta" unicode="&#x394;" horiz-adv-x="1952" 
d="M209 22l748 1531h32l753 -1526l-16 -26h-1503zM516 174h855l-435 866z" />
    <glyph glyph-name="Delta" unicode="&#x2206;" horiz-adv-x="1952" 
d="M209 22l748 1531h32l753 -1526l-16 -26h-1503zM516 174h855l-435 866z" />
    <glyph glyph-name="lessequal" unicode="&#x2264;" horiz-adv-x="1340" 
d="M189 906v135l968 402v-284l-543 -186l543 -180v-285zM183 118v236h954v-236h-954z" />
    <glyph glyph-name="greaterequal" unicode="&#x2265;" horiz-adv-x="1340" 
d="M189 508v285l543 180l-543 186v284l968 -402v-135zM183 118v236h954v-236h-954z" />
    <glyph glyph-name="notequal" unicode="&#x2260;" horiz-adv-x="1320" 
d="M348 177l81 253h-246v232h326l94 317h-420v231h501l67 206h221l-67 -206h232v-231h-313l-94 -317h407v-232h-487l-81 -253h-221z" />
    <glyph glyph-name="fraction" unicode="&#x2044;" horiz-adv-x="1069" 
d="M29 -268l796 2149l214 -63l-800 -2161z" />
    <glyph glyph-name="lozenge" unicode="&#x25ca;" horiz-adv-x="1334" 
d="M519 0l-382 637v121l412 658h265l382 -637v-121l-412 -658h-265zM690 232l260 422l-312 529l-256 -421z" />
    <glyph glyph-name="Omega" unicode="&#x3a9;" horiz-adv-x="2132" 
d="M157 0v534l166 7l44 -251h351c-210 113 -428 402 -422 634c12 454 391 643 772 643c436 0 747 -230 736 -627c-6 -211 -221 -493 -405 -650h321l100 258l143 -7l-63 -541h-686l1 240c108 93 217 445 217 749c0 261 -130 426 -373 426c-225 0 -390 -102 -390 -460
c0 -266 140 -585 253 -715l1 -240l-28 77l27 -77h-765z" />
    <glyph glyph-name="Omega" unicode="&#x2126;" horiz-adv-x="2132" 
d="M157 0v534l166 7l44 -251h351c-210 113 -428 402 -422 634c12 454 391 643 772 643c436 0 747 -230 736 -627c-6 -211 -221 -493 -405 -650h321l100 258l143 -7l-63 -541h-686l1 240c108 93 217 445 217 749c0 261 -130 426 -373 426c-225 0 -390 -102 -390 -460
c0 -266 140 -585 253 -715l1 -240l-28 77l27 -77h-765z" />
    <glyph glyph-name="radical" unicode="&#x221a;" horiz-adv-x="1776" 
d="M197 416l-99 163l181 129h319l267 -764h8l581 1976h223l-699 -2274h-297l-358 862z" />
    <glyph glyph-name="summation" unicode="&#x2211;" horiz-adv-x="1516" 
d="M205 -15l494 654l-494 717l8 197h1050l31 -342h-175l-84 180l-465 15l485 -703l-561 -719l569 20l117 205l178 -37l-54 -352l-1091 1z" />
    <glyph glyph-name="integral" unicode="&#x222b;" horiz-adv-x="1247" 
d="M207 -176c16 -55 81 -128 150 -128c90 0 181 43 181 305c0 399 -155 748 -155 1145c0 328 218 567 509 567c88 0 241 -19 311 -147l-164 -139c-16 55 -81 128 -150 128c-90 0 -181 -43 -181 -305c0 -401 145 -754 145 -1155c0 -328 -208 -567 -499 -567
c-88 0 -241 19 -311 147z" />
    <glyph glyph-name="pi" unicode="&#x3c0;" horiz-adv-x="1637" 
d="M129 114c17 4 93 29 150 68c117 80 138 168 146 304l28 342h-97c-77 1 -129 -39 -152 -101l-144 30c-4 20 4 60 14 97c43 161 180 264 317 264h783c89 0 158 26 199 107h144c-12 -181 -95 -384 -309 -397l-21 -462c-7 -125 22 -172 55 -172c60 0 116 39 139 106h179
c-36 -142 -173 -314 -353 -314c-219 0 -303 93 -290 264l68 577h-308l-3 -397c-10 -229 -49 -294 -141 -378c-39 -36 -107 -60 -160 -76z" />
    <glyph glyph-name="product" unicode="&#x220f;" horiz-adv-x="1964" 
d="M171 -37l186 42l-1 1360l-195 23v164h1652v-164l-206 -22v-1361l196 -44v-138h-746v138l193 42v1385h-535v-1383l184 -42v-140h-728v140z" />
    <glyph glyph-name="partialdiff" unicode="&#x2202;" horiz-adv-x="1481" 
d="M107 390c0 390 395 681 777 681c50 0 100 -4 148 -12c-30 260 -135 488 -446 488c-97 0 -185 -23 -269 -72l-97 131c144 95 319 149 492 149c468 0 630 -334 630 -741c0 -472 -185 -1081 -776 -1081c-300 0 -459 222 -459 457zM408 499c0 -182 134 -359 326 -359
c206 0 275 268 297 493c4 47 7 93 9 134c-86 60 -184 99 -293 99c-185 0 -339 -116 -339 -367z" />
    <glyph glyph-name="infinity" unicode="&#x221e;" horiz-adv-x="2332" 
d="M154 551c-6 243 286 568 530 568c254 0 400 -152 521 -294c126 145 299 295 477 294c257 -1 490 -166 496 -424c6 -243 -286 -568 -530 -568c-254 0 -401 151 -522 294c-125 -145 -299 -295 -476 -294c-257 1 -490 166 -496 424zM1323 698c103 -122 266 -307 416 -307
c69 0 151 98 144 226c-8 144 -180 263 -300 263c-78 0 -173 -68 -260 -182zM449 629c8 -144 180 -263 300 -263c78 0 172 68 260 182c-104 121 -266 307 -416 307c-69 0 -151 -98 -144 -226z" />
    <glyph glyph-name="HT" 
 />
    <glyph glyph-name="LF" 
 />
    <glyph glyph-name="uni000A" unicode="&#xa;" 
 />
    <glyph glyph-name="uni000B" 
 />
    <glyph glyph-name="uni000C" 
 />
    <glyph glyph-name="uni000D" unicode="&#xd;" 
 />
    <glyph glyph-name="uni000E" 
 />
    <glyph glyph-name="uni000F" 
 />
    <glyph glyph-name="uni0000" 
 />
    <glyph glyph-name="uni0000" 
 />
    <glyph glyph-name="uni001A" 
 />
    <glyph glyph-name="uni001B" 
 />
    <glyph glyph-name="uni001C" 
 />
    <glyph glyph-name="uni001D" 
 />
    <glyph glyph-name="uni001E" 
 />
    <glyph glyph-name="uni001F" 
 />
    <glyph glyph-name="uni007F" 
 />
    <glyph glyph-name="DLE" 
 />
    <glyph glyph-name="DC1" 
 />
    <glyph glyph-name="DC2" 
 />
    <glyph glyph-name="DC3" 
 />
    <glyph glyph-name="DC4" 
 />
    <glyph glyph-name="minus" unicode="&#x2212;" horiz-adv-x="1320" 
d="M183 722v236h954v-236h-954z" />
    <glyph glyph-name="RS" 
 />
    <glyph glyph-name="US" 
 />
    <glyph glyph-name="DEL" 
 />
    <glyph glyph-name="nbspace" unicode="&#xa0;" horiz-adv-x="510" 
 />
    <glyph glyph-name="dotaccent.cap" horiz-adv-x="709" 
d="M333 1619c-93 0 -181 50 -181 140c0 93 106 161 207 161c130 0 178 -60 178 -138c0 -100 -97 -163 -204 -163z" />
    <glyph glyph-name="Zacute" unicode="&#x179;" horiz-adv-x="1378" 
d="M651 1593l-101 107l393 220l193 -192c-113 -85 -440 -138 -485 -135zM88 0l-41 139l739 1072l166 182l-574 -47l-128 -245l-153 30l43 422h1150l46 -153l-727 -1070l-145 -166l557 46l199 267l149 -41l-110 -436h-1171z" />
    <glyph glyph-name="Zdotaccent" unicode="&#x17b;" horiz-adv-x="1378" 
d="M682 1619c-93 0 -181 50 -181 140c0 93 106 161 207 161c130 0 178 -60 178 -138c0 -100 -97 -163 -204 -163zM88 0l-41 139l739 1072l166 182l-574 -47l-128 -245l-153 30l43 422h1150l46 -153l-727 -1070l-145 -166l557 46l199 267l149 -41l-110 -436h-1171z" />
    <glyph glyph-name="Zcaron" unicode="&#x17d;" horiz-adv-x="1378" 
d="M583 1597l-280 250l112 73l282 -128l292 128l111 -73l-285 -250h-232zM88 0l-41 139l739 1072l166 182l-574 -47l-128 -245l-153 30l43 422h1150l46 -153l-727 -1070l-145 -166l557 46l199 267l149 -41l-110 -436h-1171z" />
    <glyph glyph-name="Agrave" unicode="&#xc0;" horiz-adv-x="1600" 
d="M377 1728l193 192l373 -220l-101 -107c-45 -3 -352 50 -465 135zM5 0v140l133 40l493 1373h333l479 -1375l152 -40v-138h-684v138l134 45l-43 152h-541l-45 -148l149 -47v-140h-560zM518 521h430l-133 458l-73 274z" />
    <glyph glyph-name="Aacute" unicode="&#xc1;" horiz-adv-x="1600" 
d="M748 1593l-101 107l393 220l193 -192c-113 -85 -440 -138 -485 -135zM5 0v140l133 40l493 1373h333l479 -1375l152 -40v-138h-684v138l134 45l-43 152h-541l-45 -148l149 -47v-140h-560zM518 521h430l-133 458l-73 274z" />
    <glyph glyph-name="Acircumflex" unicode="&#xc2;" horiz-adv-x="1600" 
d="M521 1597l-111 73l275 250h232l270 -250l-112 -73l-272 129zM5 0v140l133 40l493 1373h333l479 -1375l152 -40v-138h-684v138l134 45l-43 152h-541l-45 -148l149 -47v-140h-560zM518 521h430l-133 458l-73 274z" />
    <glyph glyph-name="Adieresis" unicode="&#xc4;" horiz-adv-x="1600" 
d="M1060 1619c-93 0 -181 50 -181 140c0 93 106 161 207 161c130 0 178 -60 178 -138c0 -100 -97 -163 -204 -163zM512 1618c-96 0 -177 49 -177 138c0 96 102 164 205 164c130 0 184 -61 184 -140c0 -99 -102 -162 -212 -162zM5 0v140l133 40l493 1373h333l479 -1375
l152 -40v-138h-684v138l134 45l-43 152h-541l-45 -148l149 -47v-140h-560zM518 521h430l-133 458l-73 274z" />
    <glyph glyph-name="Aring" unicode="&#xc5;" horiz-adv-x="1600" 
d="M5 0v140l133 40l468 1303c-62 41 -103 105 -103 190c0 158 127 247 297 247c172 0 299 -94 299 -247c0 -88 -44 -153 -109 -194l453 -1301l152 -40v-138h-684v138l134 45l-43 152h-541l-45 -148l149 -47v-140h-560zM800 1555c71 0 125 50 125 119c0 65 -54 120 -125 120
c-75 0 -126 -51 -126 -120s51 -119 126 -119zM518 521h430l-133 458l-73 274z" />
    <glyph glyph-name="ugrave" unicode="&#xf9;" horiz-adv-x="1331" 
d="M763 1337c-161 -5 -381 174 -482 320l255 195l315 -426zM147 391v477l-94 70v122l382 91l53 -17v-696c0 -180 29 -271 153 -271c67 0 145 21 178 53v631l-127 71v138l418 91l56 -17v-998h114v-107c-44 -33 -174 -57 -283 -57c-79 0 -143 30 -143 110v38
c-76 -92 -235 -148 -330 -148c-279 0 -377 126 -377 419z" />
    <glyph glyph-name="uacute" unicode="&#xfa;" horiz-adv-x="1331" 
d="M594 1336l-88 89l315 426l255 -195c-97 -151 -311 -266 -482 -320zM147 391v477l-94 70v122l382 91l53 -17v-696c0 -180 29 -271 153 -271c67 0 145 21 178 53v631l-127 71v138l418 91l56 -17v-998h114v-107c-44 -33 -174 -57 -283 -57c-79 0 -143 30 -143 110v38
c-76 -92 -235 -148 -330 -148c-279 0 -377 126 -377 419z" />
    <glyph glyph-name="ucircumflex" unicode="&#xfb;" horiz-adv-x="1331" 
d="M377 1335l-131 74l271 366h253l277 -365l-145 -74l-259 206zM147 391v477l-94 70v122l382 91l53 -17v-696c0 -180 29 -271 153 -271c67 0 145 21 178 53v631l-127 71v138l418 91l56 -17v-998h114v-107c-44 -33 -174 -57 -283 -57c-79 0 -143 30 -143 110v38
c-76 -92 -235 -148 -330 -148c-279 0 -377 126 -377 419z" />
    <glyph glyph-name="udieresis" unicode="&#xfc;" horiz-adv-x="1331" 
d="M893 1349c-93 0 -181 50 -181 140c0 93 106 161 207 161c130 0 178 -60 178 -138c0 -100 -97 -163 -204 -163zM365 1348c-96 0 -177 49 -177 138c0 96 102 164 205 164c130 0 184 -61 184 -140c0 -99 -102 -162 -212 -162zM147 391v477l-94 70v122l382 91l53 -17v-696
c0 -180 29 -271 153 -271c67 0 145 21 178 53v631l-127 71v138l418 91l56 -17v-998h114v-107c-44 -33 -174 -57 -283 -57c-79 0 -143 30 -143 110v38c-76 -92 -235 -148 -330 -148c-279 0 -377 126 -377 419z" />
    <glyph glyph-name="agrave" unicode="&#xe0;" horiz-adv-x="1226" 
d="M704 1337c-161 -5 -381 174 -482 320l255 195l315 -426zM71 394c56 234 455 308 653 308c0 213 -77 258 -213 258c-173 0 -302 -65 -331 -86l-68 154c42 36 223 123 506 123c269 0 460 -85 460 -411v-604h131v-107c-68 -47 -182 -57 -259 -57c-51 0 -175 17 -180 114
c-69 -65 -162 -114 -290 -114c-349 0 -461 205 -409 422zM417 335c0 -129 75 -188 216 -168c36 5 65 20 90 39c0 114 1 229 1 343c-125 0 -307 -38 -307 -214z" />
    <glyph glyph-name="aacute" unicode="&#xe1;" horiz-adv-x="1226" 
d="M535 1336l-88 89l315 426l255 -195c-97 -151 -311 -266 -482 -320zM71 394c56 234 455 308 653 308c0 213 -77 258 -213 258c-173 0 -302 -65 -331 -86l-68 154c42 36 223 123 506 123c269 0 460 -85 460 -411v-604h131v-107c-68 -47 -182 -57 -259 -57
c-51 0 -175 17 -180 114c-69 -65 -162 -114 -290 -114c-349 0 -461 205 -409 422zM417 335c0 -129 75 -188 216 -168c36 5 65 20 90 39c0 114 1 229 1 343c-125 0 -307 -38 -307 -214z" />
    <glyph glyph-name="acircumflex" unicode="&#xe2;" horiz-adv-x="1226" 
d="M318 1335l-131 74l271 366h253l277 -365l-145 -74l-259 206zM71 394c56 234 455 308 653 308c0 213 -77 258 -213 258c-173 0 -302 -65 -331 -86l-68 154c42 36 223 123 506 123c269 0 460 -85 460 -411v-604h131v-107c-68 -47 -182 -57 -259 -57c-51 0 -175 17 -180 114
c-69 -65 -162 -114 -290 -114c-349 0 -461 205 -409 422zM417 335c0 -129 75 -188 216 -168c36 5 65 20 90 39c0 114 1 229 1 343c-125 0 -307 -38 -307 -214z" />
    <glyph glyph-name="adieresis" unicode="&#xe4;" horiz-adv-x="1226" 
d="M834 1349c-93 0 -181 50 -181 140c0 93 106 161 207 161c130 0 178 -60 178 -138c0 -100 -97 -163 -204 -163zM306 1348c-96 0 -177 49 -177 138c0 96 102 164 205 164c130 0 184 -61 184 -140c0 -99 -102 -162 -212 -162zM71 394c56 234 455 308 653 308
c0 213 -77 258 -213 258c-173 0 -302 -65 -331 -86l-68 154c42 36 223 123 506 123c269 0 460 -85 460 -411v-604h131v-107c-68 -47 -182 -57 -259 -57c-51 0 -175 17 -180 114c-69 -65 -162 -114 -290 -114c-349 0 -461 205 -409 422zM417 335c0 -129 75 -188 216 -168
c36 5 65 20 90 39c0 114 1 229 1 343c-125 0 -307 -38 -307 -214z" />
    <glyph glyph-name="atilde" unicode="&#xe3;" horiz-adv-x="1226" 
d="M242 1369l-87 98c44 118 216 208 308 208c146 0 208 -100 293 -100c71 0 122 37 166 71l89 -97c-45 -118 -208 -211 -301 -211c-145 0 -214 103 -300 103c-59 0 -121 -38 -168 -72zM71 394c56 234 455 308 653 308c0 213 -77 258 -213 258c-173 0 -302 -65 -331 -86
l-68 154c42 36 223 123 506 123c269 0 460 -85 460 -411v-604h131v-107c-68 -47 -182 -57 -259 -57c-51 0 -175 17 -180 114c-69 -65 -162 -114 -290 -114c-349 0 -461 205 -409 422zM417 335c0 -129 75 -188 216 -168c36 5 65 20 90 39c0 114 1 229 1 343
c-125 0 -307 -38 -307 -214z" />
    <glyph glyph-name="aring" unicode="&#xe5;" horiz-adv-x="1226" 
d="M584 1285c-161 0 -293 123 -293 275c0 151 132 275 293 275c163 0 295 -129 295 -275c0 -152 -132 -275 -295 -275zM584 1427c75 0 132 56 132 133c0 73 -57 134 -132 134c-79 0 -133 -57 -133 -134s54 -133 133 -133zM71 394c56 234 455 308 653 308
c0 213 -77 258 -213 258c-173 0 -302 -65 -331 -86l-68 154c42 36 223 123 506 123c269 0 460 -85 460 -411v-604h131v-107c-68 -47 -182 -57 -259 -57c-51 0 -175 17 -180 114c-69 -65 -162 -114 -290 -114c-349 0 -461 205 -409 422zM417 335c0 -129 75 -188 216 -168
c36 5 65 20 90 39c0 114 1 229 1 343c-125 0 -307 -38 -307 -214z" />
    <glyph glyph-name="egrave" unicode="&#xe8;" horiz-adv-x="1239" 
d="M786 1337c-161 -5 -381 174 -482 320l255 195l315 -426zM73 531c0 342 230 620 614 620c324 0 457 -174 466 -418c3 -83 -6 -147 -14 -203h-697c18 -235 121 -357 317 -357c97 0 211 19 319 67l53 -125c-102 -85 -297 -147 -491 -143c-363 7 -567 208 -567 559zM443 691
h366c8 98 25 237 -56 294c-24 17 -55 26 -98 26c-155 0 -202 -166 -212 -320z" />
    <glyph glyph-name="eacute" unicode="&#xe9;" horiz-adv-x="1239" 
d="M617 1336l-88 89l315 426l255 -195c-97 -151 -311 -266 -482 -320zM73 531c0 342 230 620 614 620c324 0 457 -174 466 -418c3 -83 -6 -147 -14 -203h-697c18 -235 121 -357 317 -357c97 0 211 19 319 67l53 -125c-102 -85 -297 -147 -491 -143c-363 7 -567 208 -567 559
zM443 691h366c8 98 25 237 -56 294c-24 17 -55 26 -98 26c-155 0 -202 -166 -212 -320z" />
    <glyph glyph-name="ecircumflex" unicode="&#xea;" horiz-adv-x="1239" 
d="M400 1335l-131 74l271 366h253l277 -365l-145 -74l-259 206zM73 531c0 342 230 620 614 620c324 0 457 -174 466 -418c3 -83 -6 -147 -14 -203h-697c18 -235 121 -357 317 -357c97 0 211 19 319 67l53 -125c-102 -85 -297 -147 -491 -143c-363 7 -567 208 -567 559z
M443 691h366c8 98 25 237 -56 294c-24 17 -55 26 -98 26c-155 0 -202 -166 -212 -320z" />
    <glyph glyph-name="edieresis" unicode="&#xeb;" horiz-adv-x="1239" 
d="M916 1349c-93 0 -181 50 -181 140c0 93 106 161 207 161c130 0 178 -60 178 -138c0 -100 -97 -163 -204 -163zM388 1348c-96 0 -177 49 -177 138c0 96 102 164 205 164c130 0 184 -61 184 -140c0 -99 -102 -162 -212 -162zM73 531c0 342 230 620 614 620
c324 0 457 -174 466 -418c3 -83 -6 -147 -14 -203h-697c18 -235 121 -357 317 -357c97 0 211 19 319 67l53 -125c-102 -85 -297 -147 -491 -143c-363 7 -567 208 -567 559zM443 691h366c8 98 25 237 -56 294c-24 17 -55 26 -98 26c-155 0 -202 -166 -212 -320z" />
    <glyph glyph-name="ff" unicode="&#xfb00;" horiz-adv-x="1892" 
d="M1018 0v136l162 30v747h-183v105l183 79v105c0 234 199 532 496 532c69 0 166 -11 215 -32v-260c-21 8 -134 55 -224 55c-88 0 -133 -13 -133 -189v-189h300v-206h-300v-748l240 -29v-136h-756zM72 0v136l162 30v747h-183v105l183 79v105c0 234 199 532 496 532
c69 0 166 -11 215 -32v-260c-21 8 -134 55 -224 55c-88 0 -133 -13 -133 -189v-189h300v-206h-300v-748l240 -29v-136h-756z" />
    <glyph glyph-name="fi" unicode="&#xfb01;" horiz-adv-x="1694" 
d="M1305 1325c-105 0 -206 71 -206 188c0 128 128 224 245 224c143 0 205 -86 205 -189c0 -136 -120 -223 -244 -223zM72 0v136l162 30v747h-183v105l183 79v105c0 234 199 532 496 532c69 0 166 -11 215 -32v-260c-21 8 -134 55 -224 55c-88 0 -133 -13 -133 -189v-189h300
v-206h-300v-748l240 -29v-136h-756zM1025 0v136l135 28v622l-128 144v93l396 128l85 -25v-964l144 -26v-136h-632z" />
    <glyph glyph-name="ffi" unicode="&#xfb03;" horiz-adv-x="2640" 
d="M2045 1513c0 128 128 224 245 224c143 0 205 -86 205 -189c0 -136 -120 -223 -244 -223c-105 0 -206 71 -206 188zM1018 0v136l162 30v747h-183v105l183 79v105c0 234 199 532 496 532c69 0 166 -11 215 -32v-260c-21 8 -134 55 -224 55c-88 0 -133 -13 -133 -189v-189
h300v-206h-300v-748l240 -29v-136h-756zM72 0v136l162 30v747h-183v105l183 79v105c0 234 199 532 496 532c69 0 166 -11 215 -32v-260c-21 8 -134 55 -224 55c-88 0 -133 -13 -133 -189v-189h300v-206h-300v-748l240 -29v-136h-756zM1971 0v136l135 28v622l-128 144v93
l396 128l85 -25v-964l144 -26v-136h-632z" />
    <glyph glyph-name="fl" unicode="&#xfb02;" horiz-adv-x="1681" 
d="M72 0v136l162 30v747h-183v105l183 79v105c0 234 199 532 496 532c69 0 166 -11 215 -32v-260c-21 8 -134 55 -224 55c-88 0 -133 -13 -133 -189v-189h300v-206h-300v-748l240 -29v-136h-756zM1016 0v136l118 25v1223l-135 57v140l431 49l58 -18v-1446l175 -30v-136h-647
z" />
    <glyph glyph-name="ffl" unicode="&#xfb04;" horiz-adv-x="2627" 
d="M1018 0v136l162 30v747h-183v105l183 79v105c0 234 199 532 496 532c69 0 166 -11 215 -32v-260c-21 8 -134 55 -224 55c-88 0 -133 -13 -133 -189v-189h300v-206h-300v-748l240 -29v-136h-756zM72 0v136l162 30v747h-183v105l183 79v105c0 234 199 532 496 532
c69 0 166 -11 215 -32v-260c-21 8 -134 55 -224 55c-88 0 -133 -13 -133 -189v-189h300v-206h-300v-748l240 -29v-136h-756zM1962 0v136l118 25v1223l-135 57v140l431 49l58 -18v-1446l175 -30v-136h-647z" />
    <glyph glyph-name="zcaron" unicode="&#x17e;" horiz-adv-x="1151" 
d="M464 1335l-271 366l131 74l266 -207l259 206l145 -74l-277 -365h-253zM98 0l-46 100l115 184l437 594l85 90l-345 -20l-66 -202h-182v373h957l51 -124l-476 -692l-123 -152l363 35l60 172h185l-16 -358h-999z" />
    <glyph glyph-name="zdotaccent" unicode="&#x17c;" horiz-adv-x="1151" 
d="M572 1328c-96 0 -177 49 -177 138c0 96 102 164 205 164c130 0 184 -61 184 -140c0 -99 -102 -162 -212 -162zM98 0l-46 100l115 184l437 594l85 90l-345 -20l-66 -202h-182v373h957l51 -124l-476 -692l-123 -152l363 35l60 172h185l-16 -358h-999z" />
    <glyph glyph-name="yacute" unicode="&#xfd;" horiz-adv-x="1233" 
d="M619 1336l-88 89l315 426l255 -195c-97 -151 -311 -266 -482 -320zM147 -261c34 -7 82 -18 148 -16c63 2 188 30 247 277h-56l-394 914l-87 26v179h585v-179l-114 -25l197 -534l16 -103l29 103l163 536l-137 23v179h508v-179l-100 -21c-297 -752 -362 -897 -391 -975
c-117 -312 -232 -486 -455 -486c-28 0 -61 1 -91 3s-57 6 -70 12z" />
    <glyph glyph-name="ydieresis" unicode="&#xff;" horiz-adv-x="1233" 
d="M918 1349c-93 0 -181 50 -181 140c0 93 106 161 207 161c130 0 178 -60 178 -138c0 -100 -97 -163 -204 -163zM390 1348c-96 0 -177 49 -177 138c0 96 102 164 205 164c130 0 184 -61 184 -140c0 -99 -102 -162 -212 -162zM147 -261c34 -7 82 -18 148 -16
c63 2 188 30 247 277h-56l-394 914l-87 26v179h585v-179l-114 -25l197 -534l16 -103l29 103l163 536l-137 23v179h508v-179l-100 -21c-297 -752 -362 -897 -391 -975c-117 -312 -232 -486 -455 -486c-28 0 -61 1 -91 3s-57 6 -70 12z" />
    <glyph glyph-name="ograve" unicode="&#xf2;" horiz-adv-x="1335" 
d="M791 1337c-161 -5 -381 174 -482 320l255 195l315 -426zM74 561c5 410 297 587 612 591c357 4 576 -189 576 -561c0 -421 -287 -614 -604 -615c-426 -1 -588 264 -584 585zM669 122c186 0 217 241 217 452c0 190 -30 432 -209 432c-186 0 -227 -221 -227 -417
c0 -171 40 -467 219 -467z" />
    <glyph glyph-name="oacute" unicode="&#xf3;" horiz-adv-x="1335" 
d="M622 1336l-88 89l315 426l255 -195c-97 -151 -311 -266 -482 -320zM74 561c5 410 297 587 612 591c357 4 576 -189 576 -561c0 -421 -287 -614 -604 -615c-426 -1 -588 264 -584 585zM669 122c186 0 217 241 217 452c0 190 -30 432 -209 432c-186 0 -227 -221 -227 -417
c0 -171 40 -467 219 -467z" />
    <glyph glyph-name="ocircumflex" unicode="&#xf4;" horiz-adv-x="1335" 
d="M405 1335l-131 74l271 366h253l277 -365l-145 -74l-259 206zM74 561c5 410 297 587 612 591c357 4 576 -189 576 -561c0 -421 -287 -614 -604 -615c-426 -1 -588 264 -584 585zM669 122c186 0 217 241 217 452c0 190 -30 432 -209 432c-186 0 -227 -221 -227 -417
c0 -171 40 -467 219 -467z" />
    <glyph glyph-name="otilde" unicode="&#xf5;" horiz-adv-x="1335" 
d="M329 1369l-87 98c44 118 216 208 308 208c146 0 208 -100 293 -100c71 0 122 37 166 71l89 -97c-45 -118 -208 -211 -301 -211c-145 0 -214 103 -300 103c-59 0 -121 -38 -168 -72zM74 561c5 410 297 587 612 591c357 4 576 -189 576 -561c0 -421 -287 -614 -604 -615
c-426 -1 -588 264 -584 585zM669 122c186 0 217 241 217 452c0 190 -30 432 -209 432c-186 0 -227 -221 -227 -417c0 -171 40 -467 219 -467z" />
    <glyph glyph-name="odieresis" unicode="&#xf6;" horiz-adv-x="1335" 
d="M921 1349c-93 0 -181 50 -181 140c0 93 106 161 207 161c130 0 178 -60 178 -138c0 -100 -97 -163 -204 -163zM393 1348c-96 0 -177 49 -177 138c0 96 102 164 205 164c130 0 184 -61 184 -140c0 -99 -102 -162 -212 -162zM74 561c5 410 297 587 612 591
c357 4 576 -189 576 -561c0 -421 -287 -614 -604 -615c-426 -1 -588 264 -584 585zM669 122c186 0 217 241 217 452c0 190 -30 432 -209 432c-186 0 -227 -221 -227 -417c0 -171 40 -467 219 -467z" />
    <glyph glyph-name="IJ" unicode="&#x132;" horiz-adv-x="1635" 
d="M736 -295c131 51 239 120 294 248c42 117 50 249 50 453v961l-148 22v164h652v-164l-143 -23v-832c0 -237 -19 -480 -60 -575c-104 -239 -395 -350 -575 -355zM55 0v140l188 41v1184l-188 24v164h727v-164l-178 -25v-1181l189 -43v-140h-738z" />
    <glyph glyph-name="Igrave" unicode="&#xcc;" horiz-adv-x="848" 
d="M460 1593c-45 -3 -352 50 -465 135l193 192l373 -220zM55 0v140l188 41v1184l-188 24v164h727v-164l-178 -25v-1181l189 -43v-140h-738z" />
    <glyph glyph-name="Iacute" unicode="&#xcd;" horiz-adv-x="848" 
d="M366 1593l-101 107l393 220l193 -192c-113 -85 -440 -138 -485 -135zM55 0v140l188 41v1184l-188 24v164h727v-164l-178 -25v-1181l189 -43v-140h-738z" />
    <glyph glyph-name="Itilde" unicode="&#x128;" horiz-adv-x="848" 
d="M77 1634l-87 78c44 118 216 208 308 208c146 0 208 -100 293 -100c71 0 122 33 166 71l89 -97c-45 -118 -208 -191 -301 -191c-145 0 -214 103 -300 103c-59 0 -121 -34 -168 -72zM55 0v140l188 41v1184l-188 24v164h727v-164l-178 -25v-1181l189 -43v-140h-738z" />
    <glyph glyph-name="Icircumflex" unicode="&#xce;" horiz-adv-x="848" 
d="M139 1597l-111 73l275 250h232l270 -250l-112 -73l-272 129zM55 0v140l188 41v1184l-188 24v164h727v-164l-178 -25v-1181l189 -43v-140h-738z" />
    <glyph glyph-name="Idieresis" unicode="&#xcf;" horiz-adv-x="848" 
d="M678 1619c-93 0 -181 50 -181 140c0 93 106 161 207 161c130 0 178 -60 178 -138c0 -100 -97 -163 -204 -163zM130 1618c-96 0 -177 49 -177 138c0 96 102 164 205 164c130 0 184 -61 184 -140c0 -99 -102 -162 -212 -162zM55 0v140l188 41v1184l-188 24v164h727v-164
l-178 -25v-1181l189 -43v-140h-738z" />
    <glyph glyph-name="Ugrave" unicode="&#xd9;" horiz-adv-x="1601" 
d="M443 1728l193 192l373 -220l-101 -107c-45 -3 -352 50 -465 135zM189 625l4 740l-158 24v164h682v-164l-169 -23v-756c0 -404 182 -460 344 -460c183 0 321 113 319 516l-3 697l-168 26v164h539v-164l-144 -26v-696c0 -547 -281 -695 -587 -695c-448 0 -661 212 -659 653
z" />
    <glyph glyph-name="Uacute" unicode="&#xda;" horiz-adv-x="1601" 
d="M814 1593l-101 107l393 220l193 -192c-113 -85 -440 -138 -485 -135zM189 625l4 740l-158 24v164h682v-164l-169 -23v-756c0 -404 182 -460 344 -460c183 0 321 113 319 516l-3 697l-168 26v164h539v-164l-144 -26v-696c0 -547 -281 -695 -587 -695
c-448 0 -661 212 -659 653z" />
    <glyph glyph-name="Ucircumflex" unicode="&#xdb;" horiz-adv-x="1601" 
d="M587 1597l-111 73l275 250h232l270 -250l-112 -73l-272 129zM189 625l4 740l-158 24v164h682v-164l-169 -23v-756c0 -404 182 -460 344 -460c183 0 321 113 319 516l-3 697l-168 26v164h539v-164l-144 -26v-696c0 -547 -281 -695 -587 -695c-448 0 -661 212 -659 653z
" />
    <glyph glyph-name="Udieresis" unicode="&#xdc;" horiz-adv-x="1601" 
d="M1126 1619c-93 0 -181 50 -181 140c0 93 106 161 207 161c130 0 178 -60 178 -138c0 -100 -97 -163 -204 -163zM578 1618c-96 0 -177 49 -177 138c0 96 102 164 205 164c130 0 184 -61 184 -140c0 -99 -102 -162 -212 -162zM189 625l4 740l-158 24v164h682v-164l-169 -23
v-756c0 -404 182 -460 344 -460c183 0 321 113 319 516l-3 697l-168 26v164h539v-164l-144 -26v-696c0 -547 -281 -695 -587 -695c-448 0 -661 212 -659 653z" />
    <glyph glyph-name="Yacute" unicode="&#xdd;" horiz-adv-x="1470" 
d="M712 1593l-101 107l393 220l193 -192c-113 -85 -440 -138 -485 -135zM344 0v140l240 45v326l-466 859l-110 19v164h630v-161l-106 -20l252 -531l29 -94l33 103l213 514l-159 25c0 55 -1 109 -1 164h563v-164l-132 -37l-390 -809v-355l269 -48v-140h-865z" />
    <glyph glyph-name="Ydieresis" unicode="&#x178;" horiz-adv-x="1470" 
d="M1024 1619c-93 0 -181 50 -181 140c0 93 106 161 207 161c130 0 178 -60 178 -138c0 -100 -97 -163 -204 -163zM476 1618c-96 0 -177 49 -177 138c0 96 102 164 205 164c130 0 184 -61 184 -140c0 -99 -102 -162 -212 -162zM344 0v140l240 45v326l-466 859l-110 19v164
h630v-161l-106 -20l252 -531l29 -94l33 103l213 514l-159 25c0 55 -1 109 -1 164h563v-164l-132 -37l-390 -809v-355l269 -48v-140h-865z" />
    <glyph glyph-name="Nacute" unicode="&#x143;" horiz-adv-x="1686" 
d="M814 1593l-101 107l393 220l193 -192c-113 -85 -440 -138 -485 -135zM63 0v140l157 45v1161l-150 22v185h509l602 -1048l88 -236v1073l-180 28v183h544v-183l-137 -22v-1348h-392l-545 917l-109 270c0 -332 1 -670 1 -998l203 -49v-140h-591z" />
    <glyph glyph-name="Ntilde" unicode="&#xd1;" horiz-adv-x="1686" 
d="M525 1634l-87 78c44 118 216 208 308 208c146 0 208 -100 293 -100c71 0 122 33 166 71l89 -97c-45 -118 -208 -191 -301 -191c-145 0 -214 103 -300 103c-59 0 -121 -34 -168 -72zM63 0v140l157 45v1161l-150 22v185h509l602 -1048l88 -236v1073l-180 28v183h544v-183
l-137 -22v-1348h-392l-545 917l-109 270c0 -332 1 -670 1 -998l203 -49v-140h-591z" />
    <glyph glyph-name="Atilde" unicode="&#xc3;" horiz-adv-x="1600" 
d="M459 1634l-87 78c44 118 216 208 308 208c146 0 208 -100 293 -100c71 0 122 33 166 71l89 -97c-45 -118 -208 -191 -301 -191c-145 0 -214 103 -300 103c-59 0 -121 -34 -168 -72zM5 0v140l133 40l493 1373h333l479 -1375l152 -40v-138h-684v138l134 45l-43 152h-541
l-45 -148l149 -47v-140h-560zM518 521h430l-133 458l-73 274z" />
    <glyph glyph-name="Egrave" unicode="&#xc8;" horiz-adv-x="1426" 
d="M319 1728l193 192l373 -220l-101 -107c-45 -3 -352 50 -465 135zM101 0v140l147 39v1188l-142 22v164h1135l31 -342h-205l-94 160l-370 21v-519l256 10l54 149h181v-488h-181l-54 159l-256 6v-549l439 28l127 198l208 -37l-54 -349h-1222z" />
    <glyph glyph-name="Eacute" unicode="&#xc9;" horiz-adv-x="1426" 
d="M690 1593l-101 107l393 220l193 -192c-113 -85 -440 -138 -485 -135zM101 0v140l147 39v1188l-142 22v164h1135l31 -342h-205l-94 160l-370 21v-519l256 10l54 149h181v-488h-181l-54 159l-256 6v-549l439 28l127 198l208 -37l-54 -349h-1222z" />
    <glyph glyph-name="Ecircumflex" unicode="&#xca;" horiz-adv-x="1426" 
d="M463 1597l-111 73l275 250h232l270 -250l-112 -73l-272 129zM101 0v140l147 39v1188l-142 22v164h1135l31 -342h-205l-94 160l-370 21v-519l256 10l54 149h181v-488h-181l-54 159l-256 6v-549l439 28l127 198l208 -37l-54 -349h-1222z" />
    <glyph glyph-name="Edieresis" unicode="&#xcb;" horiz-adv-x="1426" 
d="M1002 1619c-93 0 -181 50 -181 140c0 93 106 161 207 161c130 0 178 -60 178 -138c0 -100 -97 -163 -204 -163zM454 1618c-96 0 -177 49 -177 138c0 96 102 164 205 164c130 0 184 -61 184 -140c0 -99 -102 -162 -212 -162zM101 0v140l147 39v1188l-142 22v164h1135
l31 -342h-205l-94 160l-370 21v-519l256 10l54 149h181v-488h-181l-54 159l-256 6v-549l439 28l127 198l208 -37l-54 -349h-1222z" />
    <glyph glyph-name="Racute" unicode="&#x154;" horiz-adv-x="1525" 
d="M682 1593l-101 107l393 220l193 -192c-113 -85 -440 -138 -485 -135zM61 0v140l174 43v1173l-155 24v173h225c189 0 353 14 455 14c342 0 604 -113 604 -406c0 -236 -107 -392 -338 -470c166 -90 266 -448 389 -514l130 -37v-140h-423c-132 0 -240 644 -412 645
c-43 -1 -84 0 -121 -1v-466l191 -38v-140h-719zM589 809c61 -10 145 -12 209 -3c92 13 223 69 223 318c0 131 -76 279 -311 279c-38 0 -97 0 -121 -12v-582z" />
    <glyph glyph-name="Rcaron" unicode="&#x158;" horiz-adv-x="1525" 
d="M614 1597l-280 250l112 73l282 -128l292 128l111 -73l-285 -250h-232zM61 0v140l174 43v1173l-155 24v173h225c189 0 353 14 455 14c342 0 604 -113 604 -406c0 -236 -107 -392 -338 -470c166 -90 266 -448 389 -514l130 -37v-140h-423c-132 0 -240 644 -412 645
c-43 -1 -84 0 -121 -1v-466l191 -38v-140h-719zM589 809c61 -10 145 -12 209 -3c92 13 223 69 223 318c0 131 -76 279 -311 279c-38 0 -97 0 -121 -12v-582z" />
    <glyph glyph-name="Rcommaaccent" unicode="&#x156;" horiz-adv-x="1525" 
d="M61 0v140l174 43v1173l-155 24v173h225c189 0 353 14 455 14c342 0 604 -113 604 -406c0 -236 -107 -392 -338 -470c166 -90 266 -448 389 -514l130 -37v-140h-423c-132 0 -240 644 -412 645c-43 -1 -84 0 -121 -1v-466l191 -38v-140h-719zM589 809
c61 -10 145 -12 209 -3c92 13 223 69 223 318c0 131 -76 279 -311 279c-38 0 -97 0 -121 -12v-582zM686 -203l148 163c140 0 263 -105 263 -281c0 -172 -173 -295 -254 -319l-128 51v21c31 34 96 71 96 154c0 71 -57 134 -125 134v77z" />
    <glyph glyph-name="Ograve" unicode="&#xd2;" horiz-adv-x="1600" 
d="M392 1728l193 192l373 -220l-101 -107c-45 -3 -352 50 -465 135zM66 754c12 504 371 813 752 813c436 0 725 -330 716 -777c-11 -504 -323 -818 -737 -818c-454 0 -740 341 -731 782zM810 132c260 0 332 218 332 657c0 261 -90 613 -333 613c-265 0 -350 -229 -350 -647
c0 -235 94 -623 351 -623z" />
    <glyph glyph-name="Oacute" unicode="&#xd3;" horiz-adv-x="1600" 
d="M763 1593l-101 107l393 220l193 -192c-113 -85 -440 -138 -485 -135zM66 754c12 504 371 813 752 813c436 0 725 -330 716 -777c-11 -504 -323 -818 -737 -818c-454 0 -740 341 -731 782zM810 132c260 0 332 218 332 657c0 261 -90 613 -333 613
c-265 0 -350 -229 -350 -647c0 -235 94 -623 351 -623z" />
    <glyph glyph-name="Ocircumflex" unicode="&#xd4;" horiz-adv-x="1600" 
d="M536 1597l-111 73l275 250h232l270 -250l-112 -73l-272 129zM66 754c12 504 371 813 752 813c436 0 725 -330 716 -777c-11 -504 -323 -818 -737 -818c-454 0 -740 341 -731 782zM810 132c260 0 332 218 332 657c0 261 -90 613 -333 613c-265 0 -350 -229 -350 -647
c0 -235 94 -623 351 -623z" />
    <glyph glyph-name="Otilde" unicode="&#xd5;" horiz-adv-x="1600" 
d="M474 1634l-87 78c44 118 216 208 308 208c146 0 208 -100 293 -100c71 0 122 33 166 71l89 -97c-45 -118 -208 -191 -301 -191c-145 0 -214 103 -300 103c-59 0 -121 -34 -168 -72zM66 754c12 504 371 813 752 813c436 0 725 -330 716 -777c-11 -504 -323 -818 -737 -818
c-454 0 -740 341 -731 782zM810 132c260 0 332 218 332 657c0 261 -90 613 -333 613c-265 0 -350 -229 -350 -647c0 -235 94 -623 351 -623z" />
    <glyph glyph-name="Odieresis" unicode="&#xd6;" horiz-adv-x="1600" 
d="M1075 1619c-93 0 -181 50 -181 140c0 93 106 161 207 161c130 0 178 -60 178 -138c0 -100 -97 -163 -204 -163zM527 1618c-96 0 -177 49 -177 138c0 96 102 164 205 164c130 0 184 -61 184 -140c0 -99 -102 -162 -212 -162zM66 754c12 504 371 813 752 813
c436 0 725 -330 716 -777c-11 -504 -323 -818 -737 -818c-454 0 -740 341 -731 782zM810 132c260 0 332 218 332 657c0 261 -90 613 -333 613c-265 0 -350 -229 -350 -647c0 -235 94 -623 351 -623z" />
    <glyph glyph-name="Kcommaaccent" unicode="&#x136;" horiz-adv-x="1530" 
d="M46 0v140l189 43v1181l-192 25v164h724v-164l-178 -25v-567l460 569l-159 23l-3 164h619v-164l-187 -26l-431 -474c176 -154 412 -651 527 -712l130 -37v-140h-423c-118 0 -267 562 -419 684l-114 -126v-376l201 -42v-140h-744zM589 -203l148 163
c140 0 263 -105 263 -281c0 -172 -173 -295 -254 -319l-128 51v21c31 34 96 71 96 154c0 71 -57 134 -125 134v77z" />
    <glyph glyph-name="rcaron" unicode="&#x159;" horiz-adv-x="966" 
d="M269 1335l-271 366l131 74l266 -207l259 206l145 -74l-277 -365h-253zM98 0v136l123 25v658l-136 96v126l371 110l72 -18v-196c34 134 205 214 288 214c47 0 91 -4 108 -12v-316c-33 31 -125 48 -171 48c-113 0 -167 -31 -178 -38v-663l233 -34v-136h-710z" />
    <glyph glyph-name="rcommaaccent" unicode="&#x157;" horiz-adv-x="966" 
d="M98 0v136l123 25v658l-136 96v126l371 110l72 -18v-196c34 134 205 214 288 214c47 0 91 -4 108 -12v-316c-33 31 -125 48 -171 48c-113 0 -167 -31 -178 -38v-663l233 -34v-136h-710zM231 -203l148 163c140 0 263 -105 263 -281c0 -172 -173 -295 -254 -319l-128 51v21
c31 34 96 71 96 154c0 71 -57 134 -125 134v77z" />
    <glyph glyph-name="scaron" unicode="&#x161;" horiz-adv-x="1095" 
d="M439 1335l-271 366l131 74l266 -207l259 206l145 -74l-277 -365h-253zM99 66v263h165l63 -109c33 -34 89 -104 188 -109c119 -6 183 45 182 125c-2 73 -124 129 -260 191c-189 87 -359 194 -356 403c3 238 289 316 479 321c152 3 316 -27 398 -58v-273h-176l-56 124
c-35 41 -89 79 -148 79c-74 0 -147 -27 -147 -92c0 -87 76 -149 182 -198c191 -88 422 -166 422 -397c0 -264 -245 -360 -534 -360c-128 0 -294 27 -402 90z" />
    <glyph glyph-name="ij" unicode="&#x133;" horiz-adv-x="1432" 
d="M1067 1325c-105 0 -205 71 -205 188c0 127 127 224 244 224c143 0 206 -86 206 -189c0 -136 -121 -223 -245 -223zM359 1325c-105 0 -206 71 -206 188c0 128 128 224 245 224c143 0 205 -86 205 -189c0 -136 -120 -223 -244 -223zM708 -318c23 -7 96 -11 121 -11
c101 0 111 106 111 323v792l-110 147v88l383 130l81 -27v-1172c0 -312 -143 -494 -379 -494c-93 0 -196 27 -207 36v188zM79 0v136l135 28v622l-128 144v93l396 128l85 -25v-964l144 -26v-136h-632z" />
    <glyph glyph-name="jcircumflex" unicode="&#x135;" horiz-adv-x="684" 
d="M96 1394l-131 74l271 366h253l277 -365l-145 -74l-259 206zM192 -2v788l-110 147v88l383 130l81 -27v-1140c0 -312 -159 -499 -395 -499c-28 0 -180 6 -191 15v226c23 -7 111 -11 136 -11c88 0 96 81 96 283z" />
    <glyph glyph-name="Jcircumflex" unicode="&#x134;" horiz-adv-x="785" 
d="M128 1597l-111 73l275 250h232l270 -250l-112 -73l-272 129zM177 -47c42 117 50 249 50 453v961l-148 22v164h652v-164l-143 -23v-832c0 -237 -19 -480 -60 -575c-104 -239 -395 -350 -575 -355l-70 101c131 51 239 120 294 248z" />
    <glyph glyph-name="Eogonek" unicode="&#x118;" horiz-adv-x="1426" 
d="M101 0v140l147 39v1188l-142 22v164h1135l31 -342h-205l-94 160l-370 21v-519l256 10l54 149h181v-488h-181l-54 159l-256 6v-549l439 28l127 198l208 -37l-54 -349h-40c-150 -51 -268 -143 -286 -195c-32 -91 20 -102 64 -103c78 -3 166 27 238 54l35 -134
c-131 -94 -281 -136 -454 -136c-154 0 -208 87 -213 163c-5 95 130 266 372 351h-938z" />
    <glyph glyph-name="Scaron" unicode="&#x160;" horiz-adv-x="1306" 
d="M530 1597l-280 250l112 73l282 -128l292 128l111 -73l-285 -250h-232zM132 64v405h150l93 -241c71 -94 178 -102 282 -102s237 49 237 222c0 136 -179 219 -364 319c-199 108 -405 236 -404 474c1 275 265 426 537 426c219 0 442 -46 484 -72v-331h-164l-94 210
c-12 15 -108 47 -191 47c-107 0 -232 -37 -234 -164c0 -149 134 -240 292 -327c224 -124 495 -241 494 -509c-1 -255 -223 -449 -595 -449c-186 0 -421 38 -523 92z" />
    <glyph glyph-name="Ccedilla" unicode="&#xc7;" horiz-adv-x="1465" 
d="M63 724c1 518 427 843 880 843c204 0 332 -45 424 -64l-20 -389h-210l-73 205c-26 39 -70 63 -216 63c-221 0 -390 -202 -390 -566c0 -345 144 -673 413 -673c167 0 223 38 241 80l82 201h174v-357c-87 -4 -186 -72 -408 -90c-1 -34 2 -78 5 -108
c168 -17 214 -131 214 -193c0 -133 -106 -200 -261 -207c-124 -6 -221 19 -264 30v149c32 -8 109 -14 126 -14c43 0 69 22 69 56c0 39 -29 57 -62 57c-16 0 -54 -3 -58 -4c1 52 20 168 42 232c-464 30 -708 351 -708 749z" />
    <glyph glyph-name="ccedilla" unicode="&#xe7;" horiz-adv-x="1134" 
d="M74 525c-2 388 274 614 621 626c137 4 309 -18 369 -52v-317h-183l-79 188c-37 22 -89 25 -132 25c-136 0 -221 -137 -229 -371c-11 -323 148 -455 326 -455c121 0 232 34 281 71l53 -125c-90 -78 -223 -126 -384 -139c-1 -35 2 -79 5 -109c168 -17 214 -131 214 -193
c0 -133 -106 -200 -261 -207c-124 -6 -221 19 -264 30v149c32 -8 109 -14 126 -14c43 0 69 22 69 56c0 39 -29 57 -62 57c-16 0 -54 -3 -58 -4c1 54 22 176 44 238c-296 39 -454 258 -456 546z" />
    <glyph glyph-name="nacute" unicode="&#x144;" horiz-adv-x="1466" 
d="M716 1336l-88 89l315 426l255 -195c-97 -151 -311 -266 -482 -320zM97 0v136l125 25v658l-136 96v126l371 110l75 -19v-148c105 101 266 167 419 167c255 -1 328 -166 328 -451v-538l141 -26v-136h-638v136l143 28v491c0 214 -30 265 -197 265c-25 0 -119 -18 -152 -46
v-711l123 -27v-136h-602z" />
    <glyph glyph-name="ntilde" unicode="&#xf1;" horiz-adv-x="1466" 
d="M423 1369l-87 98c44 118 216 208 308 208c146 0 208 -100 293 -100c71 0 122 37 166 71l89 -97c-45 -118 -208 -211 -301 -211c-145 0 -214 103 -300 103c-59 0 -121 -38 -168 -72zM97 0v136l125 25v658l-136 96v126l371 110l75 -19v-148c105 101 266 167 419 167
c255 -1 328 -166 328 -451v-538l141 -26v-136h-638v136l143 28v491c0 214 -30 265 -197 265c-25 0 -119 -18 -152 -46v-711l123 -27v-136h-602z" />
    <glyph glyph-name="igrave" unicode="&#xec;" horiz-adv-x="748" 
d="M510 1337c-161 -5 -381 174 -482 320l255 195l315 -426zM79 0v136l135 28v622l-128 144v93l396 134l85 -25v-970l141 -26v-136h-629z" />
    <glyph glyph-name="itilde" unicode="&#x129;" horiz-adv-x="748" 
d="M48 1369l-87 98c44 118 216 208 308 208c146 0 208 -100 293 -100c71 0 122 37 166 71l89 -97c-45 -118 -208 -211 -301 -211c-145 0 -214 103 -300 103c-59 0 -121 -38 -168 -72zM79 0v136l135 28v622l-128 144v93l396 134l85 -25v-970l141 -26v-136h-629z" />
    <glyph glyph-name="idieresis" unicode="&#xef;" horiz-adv-x="748" 
d="M640 1349c-93 0 -181 50 -181 140c0 93 106 161 207 161c130 0 178 -60 178 -138c0 -100 -97 -163 -204 -163zM112 1348c-96 0 -177 49 -177 138c0 96 102 164 205 164c130 0 184 -61 184 -140c0 -99 -102 -162 -212 -162zM79 0v136l135 28v622l-128 144v93l396 134
l85 -25v-970l141 -26v-136h-629z" />
    <glyph glyph-name="iacute" unicode="&#xed;" horiz-adv-x="748" 
d="M341 1336l-88 89l315 426l255 -195c-97 -151 -311 -266 -482 -320zM79 0v136l135 28v622l-128 144v93l396 134l85 -25v-970l141 -26v-136h-629z" />
    <glyph glyph-name="icircumflex" unicode="&#xee;" horiz-adv-x="748" 
d="M124 1335l-131 74l271 366h253l277 -365l-145 -74l-259 206zM79 0v136l135 28v622l-128 144v93l396 134l85 -25v-970l141 -26v-136h-629z" />
    <glyph glyph-name="Aogonek" unicode="&#x104;" horiz-adv-x="1600" 
d="M5 0v140l133 40l493 1373h333l479 -1375l152 -40v-138h-238c-150 -51 -268 -143 -286 -195c-32 -91 20 -102 64 -103c78 -3 166 27 238 54l35 -134c-131 -94 -281 -136 -454 -136c-154 0 -208 87 -213 163c-5 95 130 266 372 351h-202v138l134 45l-43 152h-541l-45 -148
l149 -47v-140h-560zM518 521h430l-133 458l-73 274z" />
    </font>
</defs>
</svg>
